<?xml version="1.0" encoding="utf-8"?>
<!-- Generator: Adobe Illustrator 15.1.0, SVG Export Plug-In . SVG Version: 6.00 Build 0)  -->
<!DOCTYPE svg PUBLIC "-//W3C//DTD SVG 1.1//EN" "http://www.w3.org/Graphics/SVG/1.1/DTD/svg11.dtd">
<svg version="1.1" id="sub-graph" xmlns="http://www.w3.org/2000/svg" xmlns:xlink="http://www.w3.org/1999/xlink" x="0px" y="0px"
	 width="600px" height="643.536px" viewBox="0 0 600 643.536" enable-background="new 0 0 600 643.536" xml:space="preserve">
<g id="Layer_3">
	<g>
		<path fill="#15467A" d="M202.875,58.601h-32v-24h2v22h30V58.601z M200.875,54.601h-26v-9l7-9l9,9l6-5L200.875,54.601z"/>
	</g>
	<g>
		<path fill="#067EB9" d="M293.479,32.601h4.5c0.547,0,1,0.453,1,1v4.5c0,0.281-0.219,0.5-0.5,0.5h-1c-0.28,0-0.5-0.219-0.5-0.5
			v-2.094l-3.969,3.984c1.531,1.922,2.297,4.469,1.828,7.203c-0.656,3.75-3.703,6.734-7.469,7.298
			c-2.375,0.358-4.609-0.22-6.39-1.406c-1.172,0.781-2.531,1.297-4,1.453v2.063h1.5c0.281,0,0.5,0.219,0.5,0.5v1
			c0,0.281-0.219,0.5-0.5,0.5h-1.5v1.5c0,0.281-0.219,0.5-0.5,0.5h-1c-0.281,0-0.5-0.219-0.5-0.5v-1.5h-1.5
			c-0.281,0-0.5-0.219-0.5-0.5v-1c0-0.281,0.219-0.5,0.5-0.5h1.5v-2.063c-4.906-0.547-8.641-5.047-7.906-10.22
			c0.531-3.891,3.625-7.016,7.5-7.609c2.391-0.359,4.625,0.219,6.406,1.406c1.438-0.953,3.156-1.516,5-1.516
			c2.125,0,4.078,0.75,5.609,1.969l3.984-3.969h-2.094c-0.281,0-0.5-0.219-0.5-0.5v-1C292.979,32.82,293.198,32.601,293.479,32.601z
			 M275.979,52.601c1.234,0,2.406-0.328,3.406-0.891c-1.484-1.609-2.406-3.75-2.406-6.109s0.922-4.5,2.406-6.109
			c-1-0.563-2.172-0.891-3.406-0.891c-3.859,0-7,3.141-7,7C268.979,49.46,272.121,52.601,275.979,52.601z M282.979,45.601
			c0-1.906-0.765-3.625-2-4.891c-1.234,1.266-2,2.984-2,4.891s0.766,3.625,2,4.891C282.213,49.226,282.979,47.507,282.979,45.601z
			 M292.979,45.601c0-3.859-3.141-7-7-7c-1.234,0-2.406,0.328-3.406,0.891c1.484,1.609,2.406,3.75,2.406,6.109
			s-0.922,4.5-2.406,6.109c1,0.563,2.171,0.891,3.406,0.891C289.838,52.601,292.979,49.46,292.979,45.601z"/>
	</g>
	<g>
		<path fill="#6E2B85" d="M389.914,57.859l-1.672,1.688c-0.375,0.359-0.891,0.578-1.422,0.578s-1.047-0.219-1.406-0.578
			l-5.672-5.688c-0.375-0.359-0.594-0.875-0.594-1.406c0-0.594,0.25-1.078,0.672-1.5l-4-4l-1.969,1.969
			c-0.141,0.141-0.328,0.219-0.531,0.219s-0.391-0.078-0.531-0.219c0.469,0.469,0.906,0.813,0.906,1.531
			c0,0.406-0.156,0.766-0.438,1.063c-0.531,0.563-1.094,1.313-1.938,1.313c-0.391,0-0.781-0.156-1.063-0.438l-6.375-6.375
			c-0.281-0.281-0.438-0.671-0.438-1.062c0-0.844,0.75-1.406,1.313-1.938c0.297-0.281,0.656-0.437,1.063-0.437
			c0.719,0,1.063,0.438,1.531,0.906c-0.141-0.141-0.219-0.328-0.219-0.531s0.078-0.391,0.219-0.531l5.438-5.438
			c0.141-0.141,0.328-0.219,0.531-0.219s0.391,0.078,0.531,0.219c-0.469-0.468-0.906-0.813-0.906-1.531
			c0-0.406,0.156-0.766,0.438-1.063c0.531-0.562,1.094-1.312,1.938-1.312c0.391,0,0.781,0.156,1.063,0.438l6.375,6.375
			c0.281,0.281,0.438,0.672,0.438,1.063c0,0.844-0.75,1.406-1.313,1.938c-0.297,0.281-0.655,0.438-1.063,0.438
			c-0.719,0-1.063-0.438-1.531-0.906c0.141,0.141,0.219,0.328,0.219,0.531s-0.078,0.391-0.219,0.531l-1.969,1.969l4,4
			c0.422-0.422,0.906-0.672,1.5-0.672c0.531,0,1.047,0.219,1.422,0.578l5.672,5.672c0.359,0.375,0.578,0.891,0.578,1.422
			S390.273,57.5,389.914,57.859z"/>
	</g>
	<g>
		<path fill="#B8285A" d="M477.566,48.062c0,0.203-0.156,0.438-0.359,0.469l-2.422,0.375c-0.125,0.406-0.297,0.797-0.5,1.188
			c0.438,0.625,0.906,1.203,1.406,1.797c0.063,0.095,0.109,0.188,0.109,0.313c0,0.108-0.031,0.219-0.109,0.297
			c-0.313,0.422-2.063,2.328-2.516,2.328c-0.125,0-0.234-0.047-0.328-0.109l-1.797-1.406c-0.391,0.203-0.781,0.359-1.203,0.484
			c-0.078,0.797-0.156,1.656-0.359,2.422c-0.063,0.219-0.25,0.375-0.469,0.375h-2.906c-0.219,0-0.438-0.172-0.469-0.391
			l-0.359-2.392c-0.406-0.125-0.797-0.297-1.172-0.483l-1.844,1.391c-0.078,0.078-0.203,0.109-0.313,0.109
			c-0.125,0-0.234-0.047-0.328-0.125c-0.406-0.375-2.25-2.047-2.25-2.5c0-0.109,0.047-0.203,0.108-0.297
			c0.453-0.595,0.923-1.172,1.375-1.781c-0.219-0.422-0.405-0.844-0.547-1.281l-2.375-0.375c-0.219-0.031-0.375-0.234-0.375-0.453
			v-2.891c0-0.203,0.156-0.438,0.358-0.469l2.423-0.375c0.125-0.406,0.297-0.797,0.5-1.188c-0.438-0.625-0.906-1.203-1.406-1.797
			c-0.063-0.094-0.108-0.203-0.108-0.313s0.03-0.219,0.108-0.313c0.313-0.422,2.063-2.313,2.517-2.313
			c0.125,0,0.233,0.047,0.328,0.109l1.797,1.406c0.391-0.203,0.78-0.359,1.203-0.5c0.077-0.781,0.155-1.641,0.358-2.406
			c0.063-0.219,0.25-0.375,0.469-0.375h2.906c0.219,0,0.438,0.172,0.469,0.391l0.359,2.391c0.405,0.125,0.797,0.297,1.172,0.484
			l1.844-1.391c0.095-0.078,0.203-0.109,0.313-0.109c0.125,0,0.234,0.047,0.328,0.125c0.406,0.375,2.25,2.063,2.25,2.5
			c0,0.109-0.047,0.203-0.109,0.297c-0.453,0.609-0.922,1.172-1.359,1.781c0.203,0.422,0.391,0.844,0.531,1.281l2.375,0.359
			c0.219,0.047,0.375,0.25,0.375,0.469V48.062z M467.566,42.593c-2.203,0-4,1.797-4,4s1.797,4,4,4s4-1.797,4-4
			S469.77,42.593,467.566,42.593z M487.566,39.687c0,0.234-2.016,0.453-2.328,0.484c-0.125,0.297-0.281,0.563-0.469,0.813
			c0.141,0.313,0.797,1.875,0.797,2.156c0,0.047-0.016,0.078-0.063,0.109c-0.188,0.109-1.859,1.109-1.938,1.109
			c-0.203,0-1.375-1.563-1.53-1.797c-0.156,0.016-0.313,0.031-0.47,0.031c-0.155,0-0.313-0.016-0.469-0.031
			c-0.156,0.234-1.328,1.797-1.531,1.797c-0.078,0-1.75-1-1.938-1.109c-0.047-0.031-0.063-0.078-0.063-0.109
			c0-0.266,0.656-1.844,0.797-2.156c-0.188-0.25-0.344-0.516-0.469-0.813c-0.313-0.031-2.328-0.25-2.328-0.484V37.5
			c0-0.234,2.016-0.453,2.328-0.484c0.125-0.281,0.281-0.563,0.469-0.813c-0.141-0.313-0.797-1.891-0.797-2.156
			c0-0.031,0.016-0.078,0.063-0.109c0.188-0.094,1.859-1.094,1.938-1.094c0.203,0,1.375,1.547,1.531,1.781
			c0.155-0.016,0.313-0.031,0.469-0.031c0.156,0,0.313,0.016,0.47,0.031c0.438-0.609,0.905-1.219,1.438-1.75l0.094-0.031
			c0.078,0,1.75,0.984,1.938,1.094c0.047,0.031,0.063,0.078,0.063,0.109c0,0.281-0.655,1.844-0.797,2.156
			c0.188,0.25,0.344,0.531,0.469,0.813c0.313,0.031,2.328,0.25,2.328,0.484L487.566,39.687L487.566,39.687z M487.566,55.687
			c0,0.234-2.016,0.453-2.328,0.484c-0.125,0.297-0.281,0.563-0.469,0.813c0.141,0.313,0.797,1.875,0.797,2.156
			c0,0.047-0.016,0.078-0.063,0.109c-0.188,0.109-1.859,1.109-1.938,1.109c-0.203,0-1.375-1.563-1.53-1.798
			c-0.156,0.017-0.313,0.031-0.47,0.031c-0.155,0-0.313-0.017-0.469-0.031c-0.156,0.234-1.328,1.798-1.531,1.798
			c-0.078,0-1.75-1-1.938-1.109c-0.047-0.031-0.063-0.078-0.063-0.109c0-0.266,0.656-1.844,0.797-2.156
			c-0.188-0.25-0.344-0.516-0.469-0.813c-0.313-0.031-2.328-0.25-2.328-0.484V53.5c0-0.234,2.016-0.453,2.328-0.484
			c0.125-0.281,0.281-0.563,0.469-0.813c-0.141-0.313-0.797-1.892-0.797-2.156c0-0.031,0.016-0.078,0.063-0.109
			c0.188-0.094,1.859-1.094,1.938-1.094c0.203,0,1.375,1.547,1.531,1.781c0.155-0.016,0.313-0.031,0.469-0.031
			c0.156,0,0.313,0.016,0.47,0.031c0.438-0.609,0.905-1.219,1.438-1.75l0.094-0.031c0.078,0,1.75,0.984,1.938,1.094
			c0.047,0.031,0.063,0.078,0.063,0.109c0,0.281-0.655,1.844-0.797,2.156c0.188,0.25,0.344,0.531,0.469,0.813
			c0.313,0.031,2.328,0.25,2.328,0.484L487.566,55.687L487.566,55.687z M481.566,36.593c-1.094,0-2,0.906-2,2c0,1.109,0.906,2,2,2
			c1.109,0,2-0.906,2-2S482.66,36.593,481.566,36.593z M481.566,52.593c-1.094,0-2,0.906-2,2c0,1.109,0.906,2,2,2
			c1.109,0,2-0.906,2-2S482.66,52.593,481.566,52.593z"/>
	</g>
	<g>
		<path fill="#D74527" d="M579.646,41.085l-17.5,5.5c-0.063,0.016-0.109,0.016-0.156,0.016c-0.045,0-0.093,0-0.156-0.016
			l-10.188-3.219c-0.891,0.703-1.516,2.422-1.641,4.531c0.594,0.345,0.984,0.97,0.984,1.703c0,0.703-0.359,1.313-0.906,1.672
			l0.906,6.767c0.016,0.141-0.031,0.28-0.125,0.391c-0.095,0.109-0.234,0.172-0.375,0.172h-3c-0.142,0-0.281-0.063-0.375-0.172
			c-0.095-0.109-0.142-0.25-0.125-0.391l0.905-6.767c-0.547-0.358-0.905-0.969-0.905-1.672c0-0.75,0.422-1.392,1.016-1.733
			c0.094-1.828,0.563-3.798,1.531-5.157l-5.203-1.625c-0.203-0.078-0.344-0.266-0.344-0.484s0.141-0.406,0.344-0.484l17.5-5.5
			c0.063-0.016,0.109-0.016,0.156-0.016s0.094,0,0.155,0.016l17.5,5.5c0.203,0.078,0.345,0.266,0.345,0.484
			S579.849,41.007,579.646,41.085z M571.989,50.601c0.125,2.203-4.483,4-10,4c-5.515,0-10.125-1.797-10-4l0.281-4.938l8.969,2.828
			c0.25,0.077,0.5,0.108,0.75,0.108s0.5-0.031,0.75-0.108l8.969-2.828L571.989,50.601z"/>
	</g>
</g>
<g id="Layer_2">
	<line fill="none" stroke="#FBB040" stroke-width="2" stroke-miterlimit="10" x1="186.875" y1="77.597" x2="186.875" y2="643.536"/>
	<line fill="none" stroke="#F15A29" stroke-width="2" stroke-miterlimit="10" x1="282.979" y1="77.597" x2="282.979" y2="643.536"/>
	<line fill="none" stroke="#EF4136" stroke-width="2" stroke-miterlimit="10" x1="376.969" y1="77.417" x2="376.969" y2="643.536"/>
	<line fill="none" stroke="#BE1E2D" stroke-width="2" stroke-miterlimit="10" x1="473.07" y1="77.597" x2="473.07" y2="643.536"/>
	<line fill="none" stroke="#21409A" stroke-width="2" stroke-miterlimit="10" x1="561.783" y1="77.597" x2="561.783" y2="643.536"/>
</g>
<g id="Layer_1">
	<path id="bangladesh" fill="none" stroke="#A7A9AC" stroke-width="2" stroke-miterlimit="10" d="M106.526,623.479
		c80.349-0.516-1.548,0,80.143,0c96.077,0,0-30.463,96.31-30.463c93.785,0-0.206,14.021,93.99,14.021
		c96.104,0-0.002-37.502,96.103-37.502c88.711,0,2.539,19.736,88.713,19.736"/>
	<path id="pakistan" fill="none" stroke="#A7A9AC" stroke-width="2" stroke-miterlimit="10" d="M88.763,607.038
		c80.349-0.514,16.42-89.836,98.111-89.836c96.077,0-0.206,106.275,96.104,106.275c93.785,0-0.411,0,93.785,0
		c96.104,0,0.203-53.941,96.308-53.941c88.711,0,1.79-159.207,87.964-159.207"/>
	<path id="india" fill="none" stroke="#FF0000" stroke-width="2" stroke-miterlimit="10" d="M68.951,589.272
		c80.349-0.514,36.232-197,117.923-197c96.077,0-0.412,179.484,95.898,179.484c93.785,0,0.961,0.723,95.157,0.723
		c96.104,0-0.963,34.029,95.142,34.029c88.711,0,1.898-106.752,88.072-106.752"/>
	<path id="egypt" fill="none" stroke="#A7A9AC" stroke-width="2" stroke-miterlimit="10" d="M70.951,570.536
		c80.349-0.514,34.232-1,115.923-1c96.077,0-0.206-52.334,96.104-52.334c93.785,0,0.755,72.07,94.951,72.07
		c96.104,0-0.296-163.014,95.809-163.014c88.711,0,1.231-141.059,87.405-141.059"/>
	<path id="uganda" fill="none" stroke="#A7A9AC" stroke-width="2" stroke-miterlimit="10" d="M84.158,551.756
		c80.349-0.514,21.026-3.482,102.717-3.482c96.077,0-0.412,3.482,95.898,3.482c93.785,0,0.961-89.275,95.157-89.275
		c96.104,0-0.963-265.971,95.142-265.971c88.711,0,1.898,338.247,88.072,338.247"/>
	<path id="tunisia" fill="none" stroke="#A7A9AC" stroke-width="2" stroke-miterlimit="10" d="M74.947,534.756
		c80.349-0.514,30.237-125.744,111.928-125.744c96.077,0-0.206,90.189,96.104,90.189c93.785,0-0.206,52.555,93.99,52.555
		c96.104,0,0.206-178.555,96.311-178.555c88.711,0,2.331,52.914,88.505,52.914"/>
	<path id="ghana" fill="none" stroke="#A7A9AC" stroke-width="2" stroke-miterlimit="10" d="M74.947,517.202
		c80.349-0.514,30.237-90.43,111.928-90.43c96.077,0,1.993,196.705,98.303,196.705c93.786,0-2.405-196.705,91.792-196.705
		c96.104,0-0.002-321.006,96.103-321.006c88.711,0,1.79,445.99,87.964,445.99"/>
	<path id="turkey" fill="none" stroke="#A7A9AC" stroke-width="2" stroke-miterlimit="10" d="M74.947,499.202
		c80.349-0.516,30.237-160.723,111.928-160.723c96.077,0-0.206,71.189,96.104,71.189c93.785,0-0.206,125.088,93.99,125.088
		c96.104,0,0.206-17.557,96.311-17.557c88.711,0,1.734-376.087,87.908-376.087"/>
	<path id="nigeria" fill="none" stroke="#A7A9AC" stroke-width="2" stroke-miterlimit="10" d="M79.951,480.915
		c80.349-0.514,25.232,126.123,106.923,126.123c96.077,0-0.206-72.281,96.104-72.281c93.785,0-0.206-35.555,93.99-35.555
		c96.104,0,0.665-414.533,96.77-414.533c88.711,0,2.078,287.513,88.252,287.513"/>
	<path id="thailand" fill="none" stroke="#A7A9AC" stroke-width="2" stroke-miterlimit="10" d="M85.951,464.932
		c80.349-0.514,19.232,15.982,100.923,15.982c96.077,0-0.206-54.143,96.104-54.143c93.785,0-0.206-34.208,93.99-34.208
		c96.104,0,0.09-127.631,96.193-127.631c88.711,0,2.447,197.269,88.621,197.269"/>
	<path id="malasia" fill="none" stroke="#A7A9AC" stroke-width="2" stroke-miterlimit="10" d="M85.951,445.854
		c80.349-0.514,19.232-213.816,100.923-213.816c96.077,0-0.206,105.897,96.104,105.897c93.785,0-0.206,161.267,93.99,161.267
		c96.104,0-0.002-161.267,96.103-161.267c88.711,0,1.79,144.917,87.964,144.917"/>
	<path id="safrica" fill="none" stroke="#A7A9AC" stroke-width="2" stroke-miterlimit="10" d="M106.526,426.772
		c80.349-0.514-1.342-141.06,80.349-141.06c96.077,0-0.206,195.201,96.104,195.201c93.785,0-0.206-108.158,93.99-108.158
		c96.104,0-0.002-17.328,96.103-17.328c88.711,0,1.79-52.574,87.964-52.574"/>
	<path id="russia" fill="none" stroke="#A7A9AC" stroke-width="2" stroke-miterlimit="10" d="M74.947,409.67
		c85.474,0,30.237,52.531,111.928,52.531c96.077,0-0.206-160.223,96.104-160.223c93.785,0-4.202,35.956,89.994,35.956
		c96.104,0,4.086,105.081,100.189,105.081c88.711,0,2.653-122.859,88.827-122.859"/>
	<path id="brazil" fill="none" stroke="#A7A9AC" stroke-width="2" stroke-miterlimit="10" d="M69.951,391.247
		c85.474,0,35.232-35.82,116.923-35.82c96.077,0-0.206,17.33,96.104,17.33c93.785,0,0-124.642,94.196-124.642c96.104,0,0,0,96.104,0
		c88.711,0,2.537,356.291,88.711,356.291"/>
	<path id="korea" fill="none" stroke="#A7A9AC" stroke-width="2" stroke-miterlimit="10" d="M74.947,373.202
		c85.474,0,30.237-125.51,111.928-125.51c96.077,0-0.233,0,96.077,0c93.785,0-0.179,159.344,94.017,159.344
		c96.104,0-0.002,182.236,96.103,182.236c88.711,0,2.539-322.368,88.713-322.368"/>
	<path id="china" fill="none" stroke="#A7A9AC" stroke-width="2" stroke-miterlimit="10" d="M74.947,355.426
		c85.474,0,31.793-88.521,113.484-88.521c96.077,0-1.762,71.031,94.548,71.031c93.784,0-0.206,88.838,93.99,88.838
		c96.104,0-0.002-230.264,96.103-230.264c88.711,0,2.539,229.606,88.713,229.606"/>
	<path id="panama" fill="none" stroke="#A7A9AC" stroke-width="2" stroke-miterlimit="10" d="M84.158,338.479
		c85.474,0,21.026,106.715,102.717,106.715c96.077,0-0.206-53.947,96.104-53.947c93.784,0,0.755-249.93,94.951-249.93
		c96.104,0-0.296,88.087,95.809,88.087c88.711,0,1.123,340.131,87.297,340.131"/>
	<path id="peru" fill="none" stroke="#A7A9AC" stroke-width="2" stroke-miterlimit="10" d="M68.951,320.336
		c85.474,0,36.259,214.42,117.95,214.42c96.077,0-0.027-70.98,96.283-70.98c93.784,0-0.206-160.661,93.99-160.661
		c96.104,0,0-160.913,96.104-160.913c88.711,0,2.537,229.981,88.711,229.981"/>
	<path id="mexico" fill="none" stroke="#A7A9AC" stroke-width="2" stroke-miterlimit="10" d="M82.951,303.336
		c85.474,0,22.259,194.42,103.95,194.42c96.077,0-0.027-52.98,96.283-52.98c93.784,0-0.206-196.661,93.99-196.661
		c96.104,0,0-88.913,96.104-88.913c88.711,0,2.537,178.981,88.711,178.981"/>
	<path id="jamaica" fill="none" stroke="#A7A9AC" stroke-width="2" stroke-miterlimit="10" d="M85.951,285.336
		c85.474,0,19.259,266.42,100.95,266.42c96.077,0-0.027-231.981,96.283-231.981c93.784,0,0.794-195.66,94.99-195.66
		c96.104,0-1,0.087,95.104,0.087c88.711,0,2.537,392.98,88.711,392.98"/>
	<path id="spain" fill="none" stroke="#A7A9AC" stroke-width="2" stroke-miterlimit="10" d="M68.951,267.336
		c85.474,0,36.259,52.421,117.95,52.421c96.077,0-0.027-103.982,96.283-103.982c93.784,0-0.206,15.34,93.99,15.34
		c96.104,0,0,286.086,96.104,286.086c88.711,0,2.537-161.019,88.711-161.019"/>
	<path id="japan" fill="none" stroke="#A7A9AC" stroke-width="2" stroke-miterlimit="10" d="M69.684,249.141
		c132.895,0,28.947-127.108,117.101-127.108c96.194,0,0.09,109.018,96.283,109.018c93.901,0-0.089,250.34,93.991,250.34
		c96.104,0,0,142.088,96.104,142.088c88.711,0,2.535-447.02,88.711-447.02"/>
	<path id="chile" fill="none" stroke="#A7A9AC" stroke-width="2" stroke-miterlimit="10" d="M69.951,230.336
		c85.474,0,35.259,142.42,116.95,142.42c96.077,0-0.027-86.981,96.283-86.981c93.784,0-0.206,70.341,93.99,70.341
		c96.104,0,0-179.914,96.104-179.914c88.711,0,2.537,54.981,88.711,54.981"/>
	<path id="poland" fill="none" stroke="#A7A9AC" stroke-width="2" stroke-miterlimit="10" d="M79.951,213.336
		c85.474,0,25.259,89.421,106.95,89.421c96.077,0-0.027-35.982,96.283-35.982c93.784,0-0.206,16.34,93.99,16.34
		c96.104,0,0,90.086,96.104,90.086c88.711,0,2.537-251.019,88.711-251.019"/>
	<path id="germany" fill="none" stroke="#A7A9AC" stroke-width="2" stroke-miterlimit="10" d="M92.951,196.336
		c85.474,0,43.658-54.579,93.95-54.579c50.623,0-0.027,20.018,96.283,20.018c93.784,0-0.206,159.34,93.99,159.34
		c96.104,0,0,141.086,96.104,141.086c88.711,0,2.537-248.019,88.711-248.019"/>
	<path id="france" fill="none" stroke="#A7A9AC" stroke-width="2" stroke-miterlimit="10" d="M78.951,178.336
		c85.474,0,57.658,33.421,107.95,33.421c50.623,0,23.232-49.982,96.283-49.982c77.363,0,28.43-20.66,93.99-20.66
		c96.104,0,0,358.086,96.104,358.086c88.711,0,2.537-303.019,88.711-303.019"/>
	<path id="uk" fill="none" stroke="#A7A9AC" stroke-width="2" stroke-miterlimit="10" d="M127.474,161.049
		c67.869,0,8.658-0.579,58.95-0.579c50.623,0,23.232-70.982,96.283-70.982c77.363,0,28.43,121.34,93.99,121.34
		c96.104,0,0,270.086,96.104,270.086c88.711,0,2.537-321.019,88.711-321.019"/>
	<path id="sweden" fill="none" stroke="#A7A9AC" stroke-width="2" stroke-miterlimit="10" d="M84.158,141.247
		c78.947,0,61.185-53.29,102.537-52.765c50.623,0,23.233,18.821,96.283,18.821c77.337,0,28.459,34.003,93.989,34.003
		c96.104,0,0,144.407,96.104,144.407c88.713,0,2.537-54.269,88.713-54.269"/>
	<path id="austrailia" fill="none" stroke="#A7A9AC" stroke-width="2" stroke-miterlimit="10" d="M85.474,123.826
		c85.474,0,50.658,71.42,100.951,71.42c50.623,0,23.232-70.982,96.283-70.982c77.363,0,28.429,70.34,93.99,70.34
		c96.104,0,0,126.087,96.104,126.087c88.711,0,2.537-229.019,88.711-229.019"/>
	<path fill="none" stroke="#A7A9AC" stroke-width="2" stroke-miterlimit="10" d="M84.158,105.767c71.71,0,50,70.643,102.627,70.643
		c50.624,0,23.233-14.982,96.283-14.982c77.337,0,28.46-55.66,93.991-55.66c96.104,0,0,197.086,96.104,197.086"/>
	<path fill="none" stroke="#A7A9AC" stroke-width="2" stroke-miterlimit="10" d="M110.474,88.615
		c40.79,0.658,33.553,16.447,76.401,16.315c50.624-0.156,23.053,37.596,96.104,37.596c77.337,0,28.458-37.596,93.99-37.596
		c96.104,0,0,268.699,96.104,268.699c88.711,0,2.537-268.299,88.711-268.299"/>
	<text transform="matrix(0.759 0 0 1 19.0376 93.6841)" font-family="'MuseoSansForDell'" font-size="15.8">1   United States</text>
	<text transform="matrix(0.759 0 0 1 17.9194 111.5161)" font-family="'MuseoSansForDell'" font-size="15.8">2   Canada</text>
	<text transform="matrix(0.759 0 0 1 17.9526 129.3501)" font-family="'MuseoSansForDell'" font-size="15.8">3   Australia</text>
	<text transform="matrix(0.759 0 0 1 17.5566 147.1821)" font-family="'MuseoSansForDell'" font-size="15.8">4   Sweden</text>
	<text transform="matrix(0.759 0 0 1 17.9966 165.0161)" font-family="'MuseoSansForDell'" font-size="15.8">5   United Kingdom</text>
	<text transform="matrix(0.759 0 0 1 17.5786 182.8481)" font-family="'MuseoSansForDell'" font-size="15.8">6   France</text>
	<text transform="matrix(0.759 0 0 1 18.4268 200.6821)" font-family="'MuseoSansForDell'" font-size="15.8">7   Germany</text>
	<text transform="matrix(0.759 0 0 1 17.5005 218.5161)" font-family="'MuseoSansForDell'" font-size="15.8">8   Poland</text>
	<text transform="matrix(0.759 0 0 1 17.5898 236.3501)" font-family="'MuseoSansForDell'" font-size="15.8">9   Chile</text>
	<text transform="matrix(0.759 0 0 1 11.9888 254.1841)" font-family="'MuseoSansForDell'" font-size="15.8">10   Japan</text>
	<text transform="matrix(0.759 0 0 1 13.7837 272.0171)" font-family="'MuseoSansForDell'" font-size="15.8">11   Spain</text>
	<text transform="matrix(0.759 0 0 1 12.6655 289.8491)" font-family="'MuseoSansForDell'" font-size="15.8">12   Jamaica</text>
	<text transform="matrix(0.759 0 0 1 12.6987 307.6831)" font-family="'MuseoSansForDell'" font-size="15.8">13   Mexico</text>
	<text transform="matrix(0.759 0 0 1 12.3027 325.5171)" font-family="'MuseoSansForDell'" font-size="15.8">14   Peru</text>
	<text transform="matrix(0.759 0 0 1 12.7427 343.3491)" font-family="'MuseoSansForDell'" font-size="15.8">15   Panama</text>
	<text transform="matrix(0.759 0 0 1 12.3247 361.1812)" font-family="'MuseoSansForDell'" font-size="15.8">16   China</text>
	<text transform="matrix(0.759 0 0 1 13.1724 379.0171)" font-family="'MuseoSansForDell'" font-size="15.8">17   Korea</text>
	<text transform="matrix(0.759 0 0 1 12.2466 396.8511)" font-family="'MuseoSansForDell'" font-size="15.8">18   Brazil</text>
	<text transform="matrix(0.759 0 0 1 12.3354 414.6851)" font-family="'MuseoSansForDell'" font-size="15.8">19   Russia</text>
	<text transform="matrix(0.759 0 0 1 10.8706 432.5171)" font-family="'MuseoSansForDell'" font-size="15.8">20   South Africa</text>
	<text transform="matrix(0.759 0 0 1 12.6655 450.3511)" font-family="'MuseoSansForDell'" font-size="15.8">21   Malaysia</text>
	<text transform="matrix(0.759 0 0 1 11.5474 468.1831)" font-family="'MuseoSansForDell'" font-size="15.8">22   Thailand</text>
	<text transform="matrix(0.759 0 0 1 11.5806 486.0171)" font-family="'MuseoSansForDell'" font-size="15.8">23   Nigeria</text>
	<text transform="matrix(0.759 0 0 1 11.1836 503.8491)" font-family="'MuseoSansForDell'" font-size="15.8">24   Turkey</text>
	<text transform="matrix(0.759 0 0 1 11.6245 521.6831)" font-family="'MuseoSansForDell'" font-size="15.8">25   Ghana</text>
	<text transform="matrix(0.759 0 0 1 11.2056 539.5171)" font-family="'MuseoSansForDell'" font-size="15.8">26   Tunisia</text>
	<text transform="matrix(0.759 0 0 1 12.0547 557.3491)" font-family="'MuseoSansForDell'" font-size="15.8">27   Uganda</text>
	<text transform="matrix(0.759 0 0 1 11.1284 575.1851)" font-family="'MuseoSansForDell'" font-size="15.8">28   Egypt</text>
	<text transform="matrix(0.759 0 0 1 11.2178 593.0171)" font-family="'MuseoSansForDell'" font-size="15.8">29   India</text>
	<text transform="matrix(0.759 0 0 1 10.9038 610.8511)" font-family="'MuseoSansForDell'" font-size="15.8">30   Pakistan</text>
	<text transform="matrix(0.759 0 0 1 12.6987 628.6831)" font-family="'ArialMT'" font-size="12">  </text>
	<text transform="matrix(0.759 0 0 1 12.6987 628.6831)" font-family="'MuseoSansForDell'" font-size="15.8">31   Bangladesh</text>
	<text transform="matrix(0.759 0 0 1 97.8501 628.6831)" font-family="'ArialMT'" font-size="12">  </text>
	<text transform="matrix(0.759 0 0 1 12.6987 652.3999)" font-family="'MuseoSansForDell'" font-size="15.8"> </text>
</g>
</svg>
