<?xml version="1.0" encoding="utf-8"?>
<!-- Generator: Adobe Illustrator 15.1.0, SVG Export Plug-In . SVG Version: 6.00 Build 0)  -->
<!DOCTYPE svg PUBLIC "-//W3C//DTD SVG 1.1//EN" "http://www.w3.org/Graphics/SVG/1.1/DTD/svg11.dtd">
<svg version="1.1" xmlns="http://www.w3.org/2000/svg" xmlns:xlink="http://www.w3.org/1999/xlink" x="0px" y="0px" width="600px"
	 height="643.536px" viewBox="0 0 600 643.536" enable-background="new 0 0 600 643.536" xml:space="preserve">
<g id="Layer_3">
	<g>
		<line fill="none" stroke="#DDDDDD" stroke-miterlimit="10" x1="17.5" y1="165.016" x2="561.783" y2="165.016"/>
		<line fill="none" stroke="#DDDDDD" stroke-miterlimit="10" x1="11.989" y1="254.183" x2="561.783" y2="254.183"/>
		<line fill="none" stroke="#DDDDDD" stroke-miterlimit="10" x1="12.743" y1="343.349" x2="561.512" y2="343.349"/>
		<line fill="none" stroke="#DDDDDD" stroke-miterlimit="10" x1="10.871" y1="432.517" x2="561.512" y2="432.517"/>
		<line fill="none" stroke="#DDDDDD" stroke-miterlimit="10" x1="11.625" y1="521.683" x2="561.512" y2="521.683"/>
		<line fill="none" stroke="#DDDDDD" stroke-miterlimit="10" x1="10.904" y1="610.851" x2="561.512" y2="610.851"/>
	</g>
	<g>
		<path fill="#F0AE1D" d="M202.181,35.916v32.5c0,0.684-0.566,1.25-1.25,1.25h-25c-0.684,0-1.25-0.566-1.25-1.25v-32.5
			c0-0.684,0.566-1.25,1.25-1.25h25C201.614,34.666,202.181,35.232,202.181,35.916z M182.181,40.291
			c0-0.352-0.273-0.625-0.625-0.625h-1.25c-0.352,0-0.625,0.273-0.625,0.625v1.25c0,0.352,0.273,0.625,0.625,0.625h1.25
			c0.352,0,0.625-0.273,0.625-0.625V40.291z M182.181,45.291c0-0.352-0.273-0.625-0.625-0.625h-1.25
			c-0.352,0-0.625,0.273-0.625,0.625v1.25c0,0.352,0.273,0.625,0.625,0.625h1.25c0.352,0,0.625-0.273,0.625-0.625V45.291z
			 M182.181,50.291c0-0.352-0.273-0.625-0.625-0.625h-1.25c-0.352,0-0.625,0.273-0.625,0.625v1.25c0,0.352,0.273,0.625,0.625,0.625
			h1.25c0.352,0,0.625-0.273,0.625-0.625V50.291z M182.181,55.291c0-0.352-0.273-0.625-0.625-0.625h-1.25
			c-0.352,0-0.625,0.273-0.625,0.625v1.25c0,0.352,0.273,0.625,0.625,0.625h1.25c0.352,0,0.625-0.273,0.625-0.625V55.291z
			 M182.181,60.291c0-0.352-0.273-0.625-0.625-0.625h-1.25c-0.352,0-0.625,0.273-0.625,0.625v1.25c0,0.352,0.273,0.625,0.625,0.625
			h1.25c0.352,0,0.625-0.273,0.625-0.625V60.291z M184.681,41.541c0,0.352,0.273,0.625,0.625,0.625h1.25
			c0.352,0,0.625-0.273,0.625-0.625v-1.25c0-0.352-0.273-0.625-0.625-0.625h-1.25c-0.352,0-0.625,0.273-0.625,0.625V41.541z
			 M184.681,46.541c0,0.352,0.273,0.625,0.625,0.625h1.25c0.352,0,0.625-0.273,0.625-0.625v-1.25c0-0.352-0.273-0.625-0.625-0.625
			h-1.25c-0.352,0-0.625,0.273-0.625,0.625V46.541z M184.681,51.541c0,0.352,0.273,0.625,0.625,0.625h1.25
			c0.352,0,0.625-0.273,0.625-0.625v-1.25c0-0.352-0.273-0.625-0.625-0.625h-1.25c-0.352,0-0.625,0.273-0.625,0.625V51.541z
			 M184.681,56.541c0,0.352,0.273,0.625,0.625,0.625h1.25c0.352,0,0.625-0.273,0.625-0.625v-1.25c0-0.352-0.273-0.625-0.625-0.625
			h-1.25c-0.352,0-0.625,0.273-0.625,0.625V56.541z M192.181,62.791c0-0.352-0.273-0.625-0.625-0.625h-6.25
			c-0.352,0-0.625,0.273-0.625,0.625v3.75c0,0.352,0.273,0.625,0.625,0.625h6.25c0.352,0,0.625-0.273,0.625-0.625V62.791z
			 M192.181,40.291c0-0.352-0.273-0.625-0.625-0.625h-1.25c-0.352,0-0.625,0.273-0.625,0.625v1.25c0,0.352,0.273,0.625,0.625,0.625
			h1.25c0.352,0,0.625-0.273,0.625-0.625V40.291z M192.181,45.291c0-0.352-0.273-0.625-0.625-0.625h-1.25
			c-0.352,0-0.625,0.273-0.625,0.625v1.25c0,0.352,0.273,0.625,0.625,0.625h1.25c0.352,0,0.625-0.273,0.625-0.625V45.291z
			 M192.181,50.291c0-0.352-0.273-0.625-0.625-0.625h-1.25c-0.352,0-0.625,0.273-0.625,0.625v1.25c0,0.352,0.273,0.625,0.625,0.625
			h1.25c0.352,0,0.625-0.273,0.625-0.625V50.291z M192.181,55.291c0-0.352-0.273-0.625-0.625-0.625h-1.25
			c-0.352,0-0.625,0.273-0.625,0.625v1.25c0,0.352,0.273,0.625,0.625,0.625h1.25c0.352,0,0.625-0.273,0.625-0.625V55.291z
			 M197.181,40.291c0-0.352-0.273-0.625-0.625-0.625h-1.25c-0.352,0-0.625,0.273-0.625,0.625v1.25c0,0.352,0.273,0.625,0.625,0.625
			h1.25c0.352,0,0.625-0.273,0.625-0.625V40.291z M197.181,45.291c0-0.352-0.273-0.625-0.625-0.625h-1.25
			c-0.352,0-0.625,0.273-0.625,0.625v1.25c0,0.352,0.273,0.625,0.625,0.625h1.25c0.352,0,0.625-0.273,0.625-0.625V45.291z
			 M197.181,50.291c0-0.352-0.273-0.625-0.625-0.625h-1.25c-0.352,0-0.625,0.273-0.625,0.625v1.25c0,0.352,0.273,0.625,0.625,0.625
			h1.25c0.352,0,0.625-0.273,0.625-0.625V50.291z M197.181,55.291c0-0.352-0.273-0.625-0.625-0.625h-1.25
			c-0.352,0-0.625,0.273-0.625,0.625v1.25c0,0.352,0.273,0.625,0.625,0.625h1.25c0.352,0,0.625-0.273,0.625-0.625V55.291z
			 M197.181,60.291c0-0.352-0.273-0.625-0.625-0.625h-1.25c-0.352,0-0.625,0.273-0.625,0.625v1.25c0,0.352,0.273,0.625,0.625,0.625
			h1.25c0.352,0,0.625-0.273,0.625-0.625V60.291z"/>
	</g>
	<g>
		<path fill="#F37721" d="M297.87,35.104h5.44c0.661,0,1.209,0.548,1.209,1.209v5.44c0,0.34-0.265,0.604-0.604,0.604h-1.209
			c-0.34,0-0.604-0.264-0.604-0.604v-2.531l-4.797,4.817c1.851,2.323,2.777,5.402,2.209,8.708c-0.793,4.533-4.476,8.141-9.028,8.821
			c-2.871,0.434-5.572-0.265-7.726-1.7c-1.417,0.944-3.06,1.568-4.835,1.757v2.493h1.813c0.34,0,0.605,0.265,0.605,0.605v1.208
			c0,0.34-0.265,0.604-0.605,0.604h-1.813v1.813c0,0.34-0.264,0.604-0.604,0.604h-1.209c-0.34,0-0.604-0.264-0.604-0.604v-1.813
			h-1.813c-0.34,0-0.604-0.265-0.604-0.604v-1.208c0-0.34,0.265-0.605,0.604-0.605h1.813v-2.493
			c-5.932-0.661-10.446-6.101-9.558-12.353c0.643-4.704,4.382-8.481,9.067-9.199c2.89-0.434,5.591,0.265,7.744,1.701
			c1.738-1.152,3.816-1.833,6.044-1.833c2.569,0,4.93,0.907,6.781,2.38l4.816-4.797h-2.531c-0.34,0-0.604-0.265-0.604-0.604v-1.209
			C297.265,35.368,297.53,35.104,297.87,35.104z M276.715,59.281c1.492,0,2.909-0.397,4.117-1.076
			c-1.794-1.946-2.909-4.534-2.909-7.386c0-2.853,1.114-5.44,2.909-7.386c-1.208-0.68-2.625-1.077-4.117-1.077
			c-4.666,0-8.462,3.797-8.462,8.462C268.252,55.484,272.049,59.281,276.715,59.281z M285.177,50.819
			c0-2.304-0.926-4.382-2.418-5.912c-1.492,1.53-2.417,3.608-2.417,5.912c0,2.305,0.925,4.382,2.417,5.913
			C284.251,55.201,285.177,53.124,285.177,50.819z M297.265,50.819c0-4.666-3.796-8.462-8.462-8.462
			c-1.492,0-2.909,0.397-4.118,1.077c1.795,1.945,2.909,4.533,2.909,7.386c0,2.852-1.114,5.44-2.909,7.386
			c1.209,0.679,2.625,1.076,4.118,1.076C293.469,59.281,297.265,55.484,297.265,50.819z"/>
	</g>
	<g>
		<path fill="#DB5133" d="M392.442,51.226c0,1.15-0.924,2.073-2.073,2.073v6.22c0,1.134-0.939,2.073-2.073,2.073
			c-2.883-2.397-7.531-5.685-13.151-6.155c-1.928,0.647-2.592,2.899-1.328,4.195c-1.134,1.863,0.324,3.174,2.04,4.519
			c-1.004,1.976-5.183,2.008-6.673,0.631c-0.939-2.883-2.332-5.766-1.198-9.41h-1.976c-1.426,0-2.592-1.167-2.592-2.591v-3.11
			c0-1.425,1.166-2.591,2.592-2.591h7.774c6.219,0,11.402-3.628,14.512-6.22c1.134,0,2.073,0.939,2.073,2.073v6.219
			C391.519,49.153,392.442,50.076,392.442,51.226z M388.296,43.484c-4.228,3.239-8.325,5.102-12.439,5.555v4.373
			c4.114,0.454,8.212,2.284,12.439,5.523V43.484z"/>
	</g>
	<g>
		<path fill="#B7285B" d="M488.989,52.661h-30.504v-6.537c0-1.498,1.225-2.724,2.723-2.724h5.992v-2.723
			c0-0.902,0.732-1.634,1.634-1.634h9.805c0.902,0,1.635,0.732,1.635,1.634V43.4h5.992c1.498,0,2.724,1.227,2.724,2.724V52.661z
			 M488.989,62.465c0,1.499-1.226,2.724-2.724,2.724h-25.058c-1.498,0-2.723-1.225-2.723-2.724v-8.17h11.438v2.724
			c0,0.596,0.493,1.089,1.09,1.089h5.447c0.596,0,1.089-0.494,1.089-1.089v-2.724h11.439V62.465z M478.095,43.4v-2.178h-8.716V43.4
			H478.095z M475.916,56.474h-4.358v-2.179h4.358V56.474z"/>
	</g>
	<g>
		<g>
			<path fill="#16457A" d="M561.057,48.038c-0.034,0.069-0.023,0.151-0.006,0.23c0.032-0.001,0.063-0.003,0.093-0.003
				C561.104,48.209,561.074,48.136,561.057,48.038z"/>
			<path fill="#16457A" d="M547.086,54.626c0.428-2.104,1.462-2.682,2.225-2.808c-0.438-0.709-0.696-1.541-0.696-2.434
				c0-1.817,1.051-3.39,2.575-4.152c-0.125-0.291-0.177-0.664-0.141-0.808c0,0-0.045,0-0.045-0.022
				c0.088-0.263-0.065-1.62,0.285-1.643c-0.24,0.022-0.307-0.569-0.24-0.679c0.043-0.087,0.371,0.241,0.394,0.285
				c0.132-0.066,0.263-0.241,0.219-0.395c-0.065-0.176-0.307-0.328-0.46-0.46c-0.065-0.044-0.941-0.613-0.964-0.591
				c0.089-0.153,0.067-0.307-0.065-0.416c-0.415,0.329-0.197-0.307-0.415-0.372c-0.089-0.022-0.175-0.088-0.265-0.176
				c1.271-2.015,3.045-3.701,5.147-4.861c0.132-0.022,0.307-0.022,0.482-0.022c0.395,0.043,0.613,0.372,0.898,0.569
				c0.043-0.109-0.045-0.285-0.11-0.394c0.065-0.175,0.329-0.219,0.481-0.263c0.197-0.022,0.482-0.066,0.657,0.021
				c-0.132-0.197-0.284-0.372-0.438-0.547c-0.021,0.022-0.087,0.066-0.109,0.11c-0.24-0.197-0.701,0.065-0.92,0.153
				c-0.175,0.087-0.328,0.197-0.504,0.263c-0.108,0.043-0.174,0.043-0.262,0.021c0.656-0.35,1.336-0.657,2.059-0.897
				c0.131,0.087,0.263,0.241,0.46,0.394c-0.133-0.109-0.133,0.395-0.088,0.482c0.241,0.328,0.767,0.109,1.095,0.109
				c-0.021,0,0.964,0.131,0.767-0.109c0.153,0.219,0.153,0.547,0.351,0.745c0.196-0.197-0.087-0.417,0.044-0.614
				c0.043-0.087,0.438-0.197,0.568-0.263c0.154-0.109-0.108-0.263-0.175-0.307c-0.22-0.131-1.073-0.197-0.657-0.701
				c0.154-0.175,0.701-0.087,0.877,0.022c0.24,0.131,0.503,0.372,0.174,0.591c0.154,0.022,0.877,0.219,0.768,0.503
				c0.065-0.131,0.176-0.328,0.349-0.328c0.197,0.022,0.242,0.481,0.33,0.591c0.307,0.547,0.832-0.547,0.919-0.504
				c-0.394-0.153,0.351-0.35,0.548-0.285c0.153,0.065,0.395,0.591,0.109,0.569c0.24,0.219,0.264,0.701-0.176,0.679
				c-0.307-0.022-0.656-0.438-0.94-0.109c-0.198,0.219-0.286,0.547-0.482,0.744c-0.308,0.307-0.723,0.285-1.095,0.241
				c0.153,0.021-0.329,0.525-0.372,0.613c-0.131,0.153-0.219,0.328-0.262,0.503c-0.045,0.219,0,0.46-0.111,0.679
				c0.373-0.109,0.57,0.569,0.416,0.592c0.461-0.066,0.833-0.066,1.271,0.087c0.307,0.11,0.767,0.241,0.898,0.57
				c0.088-0.131,0.504-0.066,0.635-0.022c0.263,0.132,0.284,0.416,0.35,0.657c0.088,0.329,0.373,0.876,0.746,0.701
				c0.064-0.044,0.547-0.263,0.371-0.395c-0.175-0.153-0.371-0.547-0.197-0.766c0.176-0.241,0.592-0.307,0.701-0.613
				c0.176-0.504-0.525-0.438-0.525-0.811c0-0.219,0.284-0.285,0.263-0.547c0-0.219-0.328-0.657-0.065-0.811
				c0.219-0.131,1.271,0.088,1.468,0.22c0.195,0.131,0.809,0.307,0.854,0.503c-0.045,0-0.066,0-0.109,0
				c0.174,0.154,0.328,0.482,0.021,0.57c0.197-0.044,0.766,0.175,0.373,0.307c0.131-0.066,0.24-0.022,0.371-0.109
				c0.153-0.088,0.242-0.241,0.439-0.132c0.043,0.022,0.283-0.459,0.415-0.438c0.198,0.022,0.241,0.307,0.329,0.438
				c0.087,0.197,0.328,0.263,0.416,0.46c0.152,0.372,0.088,0.722,0.592,0.854c0.152,0.044,0.568-0.197,0.547,0.131
				c0.087-0.087,0.131-0.153,0.131-0.175c0.023,0.307,0.153,0.657,0.526,0.613c0,0,0,0.417-0.045,0.482
				c-0.131,0.197-0.458,0.153-0.656,0.263c-0.066,0.022-0.592,0.481-0.525,0.547c-0.285-0.328-0.745-0.328-1.116-0.24
				c-0.395,0.065-0.768,0.109-1.141,0.263c-0.174,0.088-0.35,0.175-0.48,0.328c-0.066,0.088-0.176,0.482-0.285,0.504
				c0.219-0.044,0.328-0.285,0.504-0.416c0.24-0.153,0.635-0.351,0.941-0.263c0.24,0.065,0.438,0.153,0.154,0.351
				c-0.133,0.087-0.329,0-0.482,0.043c0.197,0.044,0.482,0.132,0.395,0.329c0.568,0.328-0.176,0.722-0.549,0.679
				c0.176,0.022-0.371,0.35-0.371,0.329c-0.197,0.109-0.461,0.109-0.613,0.307c-0.176,0.241,0.065,0.657-0.264,0.569
				c-0.131,0.285-0.635,0.131-0.854,0.438c0.241,0.263-0.241,0.635-0.481,0.307c-0.219,0.087-0.11,0.329-0.328,0.46
				c0.087,0.131,0.109,0.263-0.045,0.351c0.045-0.022,0.307,0.197,0.373,0.219c-0.044,0.11-0.132,0.197-0.241,0.197
				c0.109,0.284-0.132,0.591-0.329,0.767c-0.219,0.175-0.723,0.351-0.788,0.394c-0.394,0.373-0.657,0.92,0.044,1.073
				c0.012,0,0.018,0.192,0.022,0.38c0.182,0.088,0.361,0.182,0.533,0.285c0.105-2.468,2.142-4.445,4.636-4.445
				c2.561,0,4.645,2.084,4.645,4.645c0,0.893-0.258,1.725-0.697,2.434c0.763,0.126,1.796,0.704,2.224,2.809
				c0.128,0.624,0.186,1.283,0.213,1.857c1.693-2.625,2.682-5.749,2.682-9.104c0-9.286-7.533-16.819-16.819-16.819
				c-9.285,0-16.818,7.534-16.818,16.819c0,3.139,0.863,6.077,2.362,8.592C546.94,55.535,546.995,55.071,547.086,54.626z"/>
			<polygon fill="#16457A" points="562.979,48.524 562.987,48.527 562.983,48.52 			"/>
			<path fill="#16457A" d="M561.61,48.278c0.066,0.004,0.132,0.013,0.199,0.02c-0.046-0.017-0.09-0.034-0.118-0.063
				C561.661,48.256,561.638,48.262,561.61,48.278z"/>
			<path fill="#16457A" d="M570.886,61.077c0.02,0.04,0.036,0.084,0.055,0.125c0.06-0.041,0.116-0.083,0.175-0.125H570.886z"/>
		</g>
		<g>
			<path fill="#16457A" d="M552.487,59.956h-1.844c-1.376,0-2.67-0.661-2.67-2.189c0-1.115-0.041-4.859,1.705-4.859
				c0.29,0,1.722,1.17,3.58,1.17c0.633,0,1.239-0.11,1.832-0.317c-0.043,0.303-0.069,0.605-0.069,0.908
				c0,1.253,0.397,2.491,1.113,3.524C554.703,58.236,553.41,58.855,552.487,59.956z M553.259,52.908
				c-1.941,0-3.523-1.583-3.523-3.523s1.582-3.523,3.523-3.523c1.94,0,3.524,1.583,3.524,3.523S555.199,52.908,553.259,52.908z
				 M567.202,70.527h-12.03c-2.202,0-3.675-1.335-3.675-3.565c0-3.11,0.729-7.887,4.763-7.887c0.467,0,2.174,1.914,4.927,1.914
				c2.754,0,4.46-1.914,4.927-1.914c4.035,0,4.765,4.776,4.765,7.887C570.878,69.192,569.404,70.527,567.202,70.527z
				 M561.187,59.956c-2.918,0-5.285-2.368-5.285-5.286c0-2.918,2.367-5.285,5.285-5.285s5.286,2.367,5.286,5.285
				C566.473,57.588,564.104,59.956,561.187,59.956z M569.116,52.908c-1.941,0-3.524-1.583-3.524-3.523s1.583-3.523,3.524-3.523
				c1.939,0,3.522,1.583,3.522,3.523S571.056,52.908,569.116,52.908z M571.73,59.956h-1.844c-0.923-1.101-2.216-1.72-3.647-1.762
				c0.716-1.033,1.114-2.271,1.114-3.524c0-0.303-0.027-0.605-0.068-0.908c0.592,0.207,1.197,0.317,1.831,0.317
				c1.857,0,3.289-1.17,3.578-1.17c1.747,0,1.707,3.744,1.707,4.859C574.401,59.295,573.107,59.956,571.73,59.956z"/>
		</g>
	</g>
</g>
<g id="Layer_2">
	<line fill="none" stroke="#FBB040" stroke-width="2" stroke-miterlimit="10" x1="186.875" y1="77.597" x2="186.875" y2="643.536"/>
	<line fill="none" stroke="#F15A29" stroke-width="2" stroke-miterlimit="10" x1="282.979" y1="77.597" x2="282.979" y2="643.536"/>
	<line fill="none" stroke="#EF4136" stroke-width="2" stroke-miterlimit="10" x1="376.969" y1="77.417" x2="376.969" y2="643.536"/>
	<line fill="none" stroke="#BE1E2D" stroke-width="2" stroke-miterlimit="10" x1="473.07" y1="77.597" x2="473.07" y2="643.536"/>
	<line fill="none" stroke="#21409A" stroke-width="2" stroke-miterlimit="10" x1="561.783" y1="77.597" x2="561.783" y2="643.536"/>
</g>
<g id="Layer_1">
	<path id="bangladesh" fill="none" stroke="#A7A9AC" stroke-width="3" stroke-miterlimit="10" d="M106.526,623.478
		c80.349-0.514-1.548,0,80.143,0c96.077,0,0-30.461,96.31-30.461c93.785,0-0.206,14.021,93.99,14.021
		c96.104,0-0.002-37.502,96.102-37.502c88.711,0,2.539,19.736,88.713,19.736"/>
	<path id="pakistan_1_" fill="none" stroke="#A7A9AC" stroke-width="3" stroke-miterlimit="10" d="M88.763,607.038
		c80.349-0.514,16.42-89.837,98.111-89.837c96.077,0-0.206,106.276,96.104,106.276c93.785,0-0.411,0,93.785,0
		c96.104,0,0.203-53.941,96.307-53.941c88.711,0,1.79-159.208,87.964-159.208"/>
	<path id="india_1_" fill="none" stroke="#A7A9AC" stroke-width="3" stroke-miterlimit="10" d="M68.951,589.272
		c80.349-0.514,36.232,0,117.923,0c96.077,0-0.412-37.516,95.898-37.516c93.785,0,0.961-89.277,95.157-89.277
		c96.104,0-0.963-265.97,95.141-265.97c88.711,0,1.899,338.247,88.073,338.247"/>
	<path id="egypt_1_" fill="none" stroke="#A7A9AC" stroke-width="3" stroke-miterlimit="10" d="M70.951,570.536
		c80.349-0.514,34.232-1,115.923-1c96.077,0-0.206-52.335,96.104-52.335c93.785,0,0.755,72.071,94.951,72.071
		c96.104,0-0.296-163.014,95.808-163.014c88.711,0,1.232-141.059,87.406-141.059"/>
	<path id="uganda_1_" fill="none" stroke="#A7A9AC" stroke-width="3" stroke-miterlimit="10" d="M84.158,551.757
		c80.349-0.514,21.026,37.516,102.717,37.516c96.077,0-0.412-37.516,95.898-37.516c93.785,0,0.961-89.277,95.157-89.277
		c96.104,0-0.963-265.97,95.141-265.97c88.711,0,1.899,338.247,88.073,338.247"/>
	<path id="tunisia_1_" fill="none" stroke="#A7A9AC" stroke-width="3" stroke-miterlimit="10" d="M74.947,534.757
		c80.349-0.514,30.237-125.744,111.928-125.744c96.077,0-0.206,90.188,96.104,90.188c93.785,0-0.206,52.556,93.99,52.556
		c96.104,0,0.206-178.556,96.31-178.556c88.711,0,2.331,52.914,88.505,52.914"/>
	<path id="ghana_1_" fill="none" stroke="#A7A9AC" stroke-width="3" stroke-miterlimit="10" d="M74.947,517.201
		c80.349-0.514,30.237-90.429,111.928-90.429c96.077,0,1.993,196.705,98.303,196.705c93.786,0-2.405-196.705,91.792-196.705
		c96.104,0-0.002-321.006,96.102-321.006c88.711,0,1.79,445.99,87.964,445.99"/>
	<path id="turkey_1_" fill="none" stroke="#A7A9AC" stroke-width="3" stroke-miterlimit="10" d="M74.947,499.201
		c80.349-0.514,30.237-160.722,111.928-160.722c96.077,0-0.206,71.189,96.104,71.189c93.785,0-0.206,125.088,93.99,125.088
		c96.104,0,0.206-17.556,96.31-17.556c88.711,0,1.735-376.087,87.909-376.087"/>
	<path id="nigeria_1_" fill="none" stroke="#A7A9AC" stroke-width="3" stroke-miterlimit="10" d="M79.951,480.914
		c80.349-0.514,25.232,126.124,106.923,126.124c96.077,0-0.206-72.281,96.104-72.281c93.785,0-0.206-35.556,93.99-35.556
		c96.104,0,0.665-414.532,96.769-414.532c88.711,0,2.078,287.513,88.252,287.513"/>
	<path id="thailand_1_" fill="none" stroke="#A7A9AC" stroke-width="3" stroke-miterlimit="10" d="M85.951,464.933
		c80.349-0.514,19.232,15.981,100.923,15.981c96.077,0-0.206-54.142,96.104-54.142c93.785,0-0.206-34.208,93.99-34.208
		c96.104,0,0.09-127.631,96.193-127.631c88.711,0,2.447,197.268,88.621,197.268"/>
	<path id="malasia_1_" fill="none" stroke="#A7A9AC" stroke-width="3" stroke-miterlimit="10" d="M85.951,445.854
		c80.349-0.514,19.232-213.816,100.923-213.816c96.077,0-0.206,105.897,96.104,105.897c93.785,0-0.206,161.266,93.99,161.266
		c96.104,0-0.002-161.266,96.102-161.266c88.711,0,1.79-35.083,87.964-35.083"/>
	<path id="safrica_1_" fill="none" stroke="#A7A9AC" stroke-width="3" stroke-miterlimit="10" d="M106.526,426.772
		c80.349-0.514-1.342-141.06,80.349-141.06c96.077,0-0.206,195.201,96.104,195.201c93.785,0-0.206-108.159,93.99-108.159
		c96.104,0-0.002-17.328,96.102-17.328c88.711,0,1.79-52.574,87.964-52.574"/>
	<path id="russia_1_" fill="none" stroke="#A7A9AC" stroke-width="3" stroke-miterlimit="10" d="M74.947,409.67
		c85.474,0,30.237,52.531,111.928,52.531c96.077,0-0.206-160.222,96.104-160.222c93.785,0-4.202,35.956,89.994,35.956
		c96.104,0,4.086-65.919,100.189-65.919c88.711,0,2.653,48.141,88.827,48.141"/>
	<path id="brazil_1_" fill="none" stroke="#A7A9AC" stroke-width="3" stroke-miterlimit="10" d="M69.951,391.247
		c85.474,0,35.232-35.82,116.923-35.82c96.077,0-0.206,17.33,96.104,17.33c93.785,0,0-124.643,94.196-124.643c96.104,0,0,0,96.104,0
		c88.711,0,2.537,356.29,88.711,356.29"/>
	<path id="korea_1_" fill="none" stroke="#A7A9AC" stroke-width="3" stroke-miterlimit="10" d="M74.947,373.201
		c85.474,0,30.237-125.509,111.928-125.509c96.077,0-0.233,0,96.077,0c93.785,0-0.179,159.344,94.017,159.344
		c96.104,0-0.002,182.236,96.102,182.236c88.711,0,2.539-322.368,88.713-322.368"/>
	<path id="china_1_" fill="none" stroke="#A7A9AC" stroke-width="3" stroke-miterlimit="10" d="M74.947,355.427
		c85.474,0,31.793-88.522,113.484-88.522c96.077,0-1.762,71.031,94.548,71.031c93.784,0-0.206,88.837,93.99,88.837
		c96.104,0-0.002-230.263,96.102-230.263c88.711,0,2.539,229.605,88.713,229.605"/>
	<path id="panama" fill="none" stroke="#A7A9AC" stroke-width="3" stroke-miterlimit="10" d="M84.158,338.479
		c85.474,0,21.026,106.715,102.717,106.715c96.077,0-0.206-53.947,96.104-53.947c93.784,0,0.755-249.93,94.951-249.93
		c96.104,0-0.296,88.087,95.808,88.087c88.711,0,1.123,340.132,87.297,340.132"/>
	<path id="peru_1_" fill="none" stroke="#A7A9AC" stroke-width="3" stroke-miterlimit="10" d="M68.951,320.336
		c85.474,0,36.259,214.421,117.95,214.421c96.077,0-0.027-70.982,96.283-70.982c93.784,0-0.206-160.66,93.99-160.66
		c96.104,0,0-160.913,96.104-160.913c88.711,0,2.537,229.981,88.711,229.981"/>
	<path id="mexico_1_" fill="none" stroke="#A7A9AC" stroke-width="3" stroke-miterlimit="10" d="M82.951,303.336
		c85.474,0,22.259,194.421,103.95,194.421c96.077,0-0.027-52.982,96.283-52.982c93.784,0-0.206-196.66,93.99-196.66
		c96.104,0,0-88.913,96.104-88.913c88.711,0,2.537,178.981,88.711,178.981"/>
	<path id="jamaica_1_" fill="none" stroke="#A7A9AC" stroke-width="3" stroke-miterlimit="10" d="M85.951,285.336
		c85.474,0,19.259,266.421,100.95,266.421c96.077,0-0.027-231.982,96.283-231.982c93.784,0,0.794-195.66,94.99-195.66
		c96.104,0-1,0.087,95.104,0.087c88.711,0,2.537,392.981,88.711,392.981"/>
	<path id="spain_1_" fill="none" stroke="#A7A9AC" stroke-width="3" stroke-miterlimit="10" d="M68.951,267.336
		c85.474,0,36.259,52.421,117.95,52.421c96.077,0-0.027-103.982,96.283-103.982c93.784,0-0.206,15.34,93.99,15.34
		c96.104,0,0,286.087,96.104,286.087c88.711,0,2.537-161.019,88.711-161.019"/>
	<path id="japan_2_" fill="none" stroke="#A7A9AC" stroke-width="3" stroke-miterlimit="10" d="M69.684,249.141
		c132.895,0,28.947-127.108,117.101-127.108c96.194,0,0.09,109.018,96.283,109.018c93.901,0-0.089,250.34,93.991,250.34
		c96.104,0,0,142.087,96.104,142.087c88.711,0,2.535-447.019,88.711-447.019"/>
	<path id="chile_1_" fill="none" stroke="#A7A9AC" stroke-width="3" stroke-miterlimit="10" d="M69.951,230.336
		c85.474,0,35.259,142.421,116.95,142.421c96.077,0-0.027-86.982,96.283-86.982c93.784,0-0.206,70.34,93.99,70.34
		c96.104,0,0-179.913,96.104-179.913c88.711,0,2.537,54.981,88.711,54.981"/>
	<path id="poland_1_" fill="none" stroke="#A7A9AC" stroke-width="3" stroke-miterlimit="10" d="M79.951,213.336
		c85.474,0,25.259,89.421,106.95,89.421c96.077,0-0.027-35.982,96.283-35.982c93.784,0-0.206,16.34,93.99,16.34
		c96.104,0,0,90.087,96.104,90.087c88.711,0,2.537-251.019,88.711-251.019"/>
	<path id="germany_1_" fill="none" stroke="#A7A9AC" stroke-width="3" stroke-miterlimit="10" d="M92.951,196.336
		c85.474,0,43.658-54.579,93.95-54.579c50.623,0-0.027,20.018,96.283,20.018c93.784,0-0.206,159.34,93.99,159.34
		c96.104,0,0,141.087,96.104,141.087c88.711,0,2.537-248.019,88.711-248.019"/>
	<path id="france_1_" fill="none" stroke="#A7A9AC" stroke-width="3" stroke-miterlimit="10" d="M78.951,178.336
		c85.474,0,57.658,33.421,107.95,33.421c50.623,0,23.232-49.982,96.283-49.982c77.363,0,28.43-20.66,93.99-20.66
		c96.104,0,0,358.087,96.104,358.087c88.711,0,2.537-303.019,88.711-303.019"/>
	<path id="uk" fill="none" stroke="#A7A9AC" stroke-width="3" stroke-miterlimit="10" d="M127.474,161.049
		c67.869,0,8.658-0.579,58.95-0.579c50.623,0,23.232-70.982,96.283-70.982c77.363,0,28.43,121.34,93.99,121.34
		c96.104,0,0,270.087,96.104,270.087c88.711,0,2.537-321.019,88.711-321.019"/>
	<path id="sweden" fill="none" stroke="#A7A9AC" stroke-width="3" stroke-miterlimit="10" d="M84.158,141.247
		c78.947,0,61.185-53.29,102.537-52.765c50.623,0,23.233,18.821,96.283,18.821c77.337,0,28.459,34.003,93.989,34.003
		c96.104,0,0,144.407,96.104,144.407c88.713,0,2.537-54.269,88.713-54.269"/>
	<path id="austrailia_2_" fill="none" stroke="#A7A9AC" stroke-width="3" stroke-miterlimit="10" d="M85.474,123.826
		c85.474,0,50.658,71.42,100.951,71.42c50.623,0,23.232-70.982,96.283-70.982c77.363,0,28.429,70.34,93.99,70.34
		c96.104,0,0,126.087,96.104,126.087c88.711,0,2.537-229.019,88.711-229.019"/>
	<path id="_canada_1_" fill="none" stroke="#A7A9AC" stroke-width="3" stroke-miterlimit="10" d="M84.158,105.767
		c71.71,0,50,70.643,102.627,70.643c50.624,0,23.233-14.982,96.283-14.982c77.337,0,28.46-55.66,93.991-55.66
		c96.104,0,0,197.086,96.104,197.086"/>
	<path id="us" fill="none" stroke="#21409A" stroke-width="8" stroke-miterlimit="10" d="M110.474,88.615
		c40.79,0.658,33.553,16.447,76.401,16.315c50.624-0.156,23.053,37.596,96.104,37.596c77.337,0,28.459-37.596,93.99-37.596
		c96.104,0,0,223.699,96.104,223.699c88.711,0,2.537-223.299,88.711-223.299"/>
	<text transform="matrix(0.759 0 0 1 19.0376 93.6831)" font-family="'MuseoSansForDell'" font-size="15.8112">1   United States</text>
	<text transform="matrix(0.759 0 0 1 17.9194 111.5161)" font-family="'MuseoSansForDell'" font-size="15.8112">2   Canada</text>
	<text transform="matrix(0.759 0 0 1 17.9526 129.3491)" font-family="'MuseoSansForDell'" font-size="15.8112">3   Australia</text>
	<text transform="matrix(0.759 0 0 1 17.5566 147.1821)" font-family="'MuseoSansForDell'" font-size="15.8112">4   Sweden</text>
	<text transform="matrix(0.759 0 0 1 17.9966 165.0161)" font-family="'MuseoSansForDell'" font-size="15.8112">5   United Kingdom</text>
	<text transform="matrix(0.759 0 0 1 17.5786 182.8481)" font-family="'MuseoSansForDell'" font-size="15.8112">6   France</text>
	<text transform="matrix(0.759 0 0 1 18.4268 200.6821)" font-family="'MuseoSansForDell'" font-size="15.8112">7   Germany</text>
	<text transform="matrix(0.759 0 0 1 17.5005 218.5161)" font-family="'MuseoSansForDell'" font-size="15.8112">8   Poland</text>
	<text transform="matrix(0.759 0 0 1 17.5898 236.3491)" font-family="'MuseoSansForDell'" font-size="15.8112">9   Chile</text>
	<text transform="matrix(0.759 0 0 1 11.9888 254.1831)" font-family="'MuseoSansForDell'" font-size="15.8112">10   Japan</text>
	<text transform="matrix(0.759 0 0 1 13.7837 272.0166)" font-family="'MuseoSansForDell'" font-size="15.8112">11   Spain</text>
	<text transform="matrix(0.759 0 0 1 12.6655 289.8486)" font-family="'MuseoSansForDell'" font-size="15.8112">12   Jamaica</text>
	<text transform="matrix(0.759 0 0 1 12.6987 307.6826)" font-family="'MuseoSansForDell'" font-size="15.8112">13   Mexico</text>
	<text transform="matrix(0.759 0 0 1 12.3027 325.5166)" font-family="'MuseoSansForDell'" font-size="15.8112">14   Peru</text>
	<text transform="matrix(0.759 0 0 1 12.7427 343.3486)" font-family="'MuseoSansForDell'" font-size="15.8112">15   Panama</text>
	<text transform="matrix(0.759 0 0 1 12.3247 361.1807)" font-family="'MuseoSansForDell'" font-size="15.8112">16   China</text>
	<text transform="matrix(0.759 0 0 1 13.1724 379.0166)" font-family="'MuseoSansForDell'" font-size="15.8112">17   Korea</text>
	<text transform="matrix(0.759 0 0 1 12.2466 396.8506)" font-family="'MuseoSansForDell'" font-size="15.8112">18   Brazil</text>
	<text transform="matrix(0.759 0 0 1 12.3354 414.6846)" font-family="'MuseoSansForDell'" font-size="15.8112">19   Russia</text>
	<text transform="matrix(0.759 0 0 1 10.8706 432.5166)" font-family="'MuseoSansForDell'" font-size="15.8112">20   South Africa</text>
	<text transform="matrix(0.759 0 0 1 12.6655 450.3506)" font-family="'MuseoSansForDell'" font-size="15.8112">21   Malaysia</text>
	<text transform="matrix(0.759 0 0 1 11.5474 468.1826)" font-family="'MuseoSansForDell'" font-size="15.8112">22   Thailand</text>
	<text transform="matrix(0.759 0 0 1 11.5806 486.0166)" font-family="'MuseoSansForDell'" font-size="15.8112">23   Nigeria</text>
	<text transform="matrix(0.759 0 0 1 11.1836 503.8486)" font-family="'MuseoSansForDell'" font-size="15.8112">24   Turkey</text>
	<text transform="matrix(0.759 0 0 1 11.6245 521.6826)" font-family="'MuseoSansForDell'" font-size="15.8112">25   Ghana</text>
	<text transform="matrix(0.759 0 0 1 11.2056 539.5166)" font-family="'MuseoSansForDell'" font-size="15.8112">26   Tunisia</text>
	<text transform="matrix(0.759 0 0 1 12.0547 557.3486)" font-family="'MuseoSansForDell'" font-size="15.8112">27   Uganda</text>
	<text transform="matrix(0.759 0 0 1 11.1284 575.1846)" font-family="'MuseoSansForDell'" font-size="15.8112">28   Egypt</text>
	<text transform="matrix(0.759 0 0 1 11.2178 593.0166)" font-family="'MuseoSansForDell'" font-size="15.8112">29   India</text>
	<text transform="matrix(0.759 0 0 1 10.9038 610.8506)" font-family="'MuseoSansForDell'" font-size="15.8112">30   Pakistan</text>
	<text transform="matrix(0.759 0 0 1 12.6987 628.6826)" enable-background="new    "><tspan x="0" y="0" font-family="'MuseoSansForDell'" font-size="15.8112">31   Bangladesh</tspan><tspan x="0" y="23.717" font-family="'MuseoSansForDell'" font-size="15.8112"> </tspan></text>
</g>
</svg>
