<?xml version="1.0" encoding="utf-8"?>
<!-- Generator: Adobe Illustrator 15.1.0, SVG Export Plug-In . SVG Version: 6.00 Build 0)  -->
<!DOCTYPE svg PUBLIC "-//W3C//DTD SVG 1.1//EN" "http://www.w3.org/Graphics/SVG/1.1/DTD/svg11.dtd">
<svg version="1.1" id="Layer_1" xmlns="http://www.w3.org/2000/svg" xmlns:xlink="http://www.w3.org/1999/xlink" x="0px" y="0px"
	 width="68.563px" height="51.422px" viewBox="0 0 68.563 51.422" enable-background="new 0 0 68.563 51.422" xml:space="preserve">
<g>
	<path fill="#FFFFFF" d="M68.563,51.422H0V0h4.285v47.137h64.277V51.422z M64.277,42.852H8.57V23.568L23.568,4.285l19.283,19.283
		l12.855-10.713L64.277,42.852z"/>
</g>
<g>
	<path fill="#FFFFFF" d="M164.778-4.285h9.642c1.172,0,2.143,0.971,2.143,2.143v9.642c0,0.603-0.469,1.071-1.071,1.071h-2.143
		c-0.603,0-1.071-0.469-1.071-1.071V3.013l-8.503,8.537c3.28,4.118,4.921,9.575,3.916,15.433
		c-1.405,8.035-7.934,14.429-16.002,15.634c-5.089,0.77-9.876-0.469-13.692-3.013c-2.511,1.674-5.423,2.779-8.57,3.114v4.419h3.214
		c0.603,0,1.071,0.469,1.071,1.071v2.143c0,0.603-0.469,1.071-1.071,1.071h-3.214v3.214c0,0.603-0.469,1.071-1.071,1.071h-2.143
		c-0.603,0-1.071-0.469-1.071-1.071v-3.214h-3.214c-0.603,0-1.071-0.469-1.071-1.071v-2.143c0-0.603,0.469-1.071,1.071-1.071h3.214
		v-4.419c-10.512-1.172-18.513-10.813-16.94-21.895c1.138-8.336,7.767-15.032,16.069-16.304c5.122-0.77,9.91,0.469,13.726,3.013
		c3.08-2.042,6.763-3.248,10.713-3.248c4.553,0,8.737,1.607,12.019,4.218L169.265,0h-4.486c-0.603,0-1.071-0.469-1.071-1.071v-2.143
		C163.707-3.816,164.176-4.285,164.778-4.285z M127.283,38.566c2.645,0,5.156-0.703,7.298-1.908
		c-3.181-3.448-5.156-8.035-5.156-13.09s1.975-9.642,5.156-13.09c-2.143-1.205-4.654-1.908-7.298-1.908
		c-8.269,0-14.998,6.729-14.998,14.998S119.014,38.566,127.283,38.566z M142.281,23.568c0-4.084-1.641-7.767-4.285-10.479
		c-2.645,2.712-4.285,6.394-4.285,10.479s1.641,7.767,4.285,10.479C140.641,31.335,142.281,27.653,142.281,23.568z M163.707,23.568
		c0-8.269-6.729-14.998-14.998-14.998c-2.645,0-5.155,0.703-7.298,1.908c3.18,3.448,5.156,8.035,5.156,13.09
		s-1.976,9.642-5.156,13.09c2.143,1.205,4.654,1.908,7.298,1.908C156.978,38.566,163.707,31.837,163.707,23.568z"/>
</g>
<g>
	<path fill="#FFFFFF" d="M276.836,50.149l-3.582,3.616c-0.804,0.77-1.908,1.238-3.047,1.238c-1.138,0-2.242-0.469-3.013-1.238
		L255.042,41.58c-0.804-0.77-1.272-1.875-1.272-3.013c0-1.272,0.536-2.31,1.439-3.214l-8.57-8.57L242.421,31
		c-0.301,0.301-0.703,0.469-1.138,0.469s-0.837-0.167-1.138-0.469c1.004,1.004,1.941,1.741,1.941,3.281
		c0,0.871-0.334,1.641-0.937,2.276c-1.138,1.205-2.344,2.813-4.151,2.813c-0.837,0-1.674-0.335-2.276-0.938l-13.659-13.659
		c-0.603-0.603-0.937-1.439-0.937-2.276c0-1.808,1.606-3.013,2.812-4.151c0.636-0.603,1.406-0.938,2.276-0.938
		c1.54,0,2.276,0.938,3.281,1.942c-0.301-0.301-0.469-0.703-0.469-1.138s0.167-0.837,0.469-1.138l11.65-11.65
		c0.301-0.301,0.703-0.469,1.138-0.469s0.837,0.167,1.138,0.469c-1.004-1.004-1.941-1.741-1.941-3.281
		c0-0.871,0.334-1.641,0.937-2.276c1.138-1.205,2.344-2.813,4.151-2.813c0.837,0,1.674,0.335,2.276,0.938l13.659,13.659
		c0.603,0.603,0.938,1.439,0.938,2.276c0,1.808-1.606,3.013-2.812,4.151c-0.637,0.603-1.406,0.938-2.277,0.938
		c-1.539,0-2.276-0.938-3.28-1.942c0.301,0.301,0.469,0.703,0.469,1.138s-0.168,0.837-0.469,1.138l-4.218,4.218l8.57,8.57
		c0.903-0.904,1.941-1.439,3.213-1.439c1.139,0,2.243,0.469,3.047,1.239l12.152,12.152c0.771,0.803,1.239,1.908,1.239,3.046
		C278.075,48.275,277.606,49.38,276.836,50.149z"/>
</g>
<g>
	<path fill="#FFFFFF" d="M363.494,28.858c0,0.435-0.335,0.938-0.77,1.004l-5.189,0.803c-0.268,0.871-0.636,1.708-1.071,2.544
		c0.938,1.339,1.941,2.578,3.013,3.85c0.134,0.201,0.234,0.401,0.234,0.669c0,0.234-0.066,0.469-0.234,0.636
		c-0.669,0.904-4.419,4.988-5.39,4.988c-0.268,0-0.502-0.1-0.703-0.234l-3.85-3.013c-0.837,0.435-1.674,0.77-2.578,1.038
		c-0.167,1.708-0.335,3.549-0.77,5.189c-0.134,0.469-0.536,0.804-1.004,0.804h-6.227c-0.469,0-0.938-0.368-1.004-0.837l-0.77-5.122
		c-0.871-0.268-1.708-0.636-2.511-1.038l-3.951,2.979c-0.167,0.167-0.435,0.234-0.669,0.234c-0.268,0-0.502-0.1-0.703-0.268
		c-0.87-0.804-4.821-4.386-4.821-5.356c0-0.234,0.101-0.435,0.234-0.636c0.971-1.272,1.975-2.511,2.946-3.816
		c-0.469-0.904-0.871-1.808-1.172-2.745l-5.088-0.803c-0.469-0.067-0.804-0.502-0.804-0.971v-6.193c0-0.435,0.335-0.938,0.77-1.004
		l5.189-0.803c0.268-0.871,0.636-1.708,1.071-2.544c-0.938-1.339-1.941-2.578-3.013-3.85c-0.134-0.201-0.234-0.435-0.234-0.669
		s0.067-0.469,0.234-0.669c0.669-0.904,4.419-4.955,5.39-4.955c0.268,0,0.502,0.1,0.703,0.234l3.85,3.013
		c0.837-0.435,1.674-0.77,2.578-1.071c0.167-1.674,0.335-3.515,0.77-5.155c0.134-0.469,0.536-0.804,1.004-0.804h6.227
		c0.469,0,0.938,0.368,1.004,0.837l0.77,5.122c0.871,0.268,1.708,0.636,2.511,1.038l3.95-2.979c0.201-0.167,0.436-0.234,0.67-0.234
		c0.268,0,0.502,0.1,0.703,0.268c0.87,0.804,4.82,4.419,4.82,5.356c0,0.234-0.1,0.435-0.234,0.636
		c-0.971,1.306-1.975,2.511-2.912,3.816c0.436,0.904,0.837,1.808,1.138,2.745l5.089,0.77c0.469,0.101,0.804,0.536,0.804,1.004
		V28.858z M342.068,17.141c-4.72,0-8.57,3.85-8.57,8.57s3.85,8.57,8.57,8.57s8.57-3.85,8.57-8.57S346.789,17.141,342.068,17.141z
		 M384.92,10.914c0,0.502-4.318,0.971-4.988,1.038c-0.268,0.636-0.603,1.205-1.004,1.741c0.301,0.669,1.707,4.018,1.707,4.62
		c0,0.1-0.033,0.167-0.134,0.234c-0.401,0.234-3.984,2.377-4.151,2.377c-0.436,0-2.946-3.348-3.281-3.85
		c-0.334,0.033-0.669,0.067-1.004,0.067s-0.67-0.034-1.004-0.067c-0.335,0.502-2.846,3.85-3.281,3.85
		c-0.167,0-3.75-2.143-4.151-2.377c-0.101-0.067-0.134-0.167-0.134-0.234c0-0.569,1.406-3.951,1.707-4.62
		c-0.401-0.536-0.736-1.104-1.004-1.741c-0.67-0.067-4.988-0.536-4.988-1.038V6.227c0-0.502,4.318-0.971,4.988-1.038
		c0.268-0.603,0.603-1.205,1.004-1.741c-0.301-0.669-1.707-4.051-1.707-4.62c0-0.067,0.033-0.167,0.134-0.234
		c0.401-0.201,3.984-2.343,4.151-2.343c0.436,0,2.946,3.314,3.281,3.816C371.395,0.034,371.729,0,372.064,0s0.67,0.034,1.004,0.067
		c0.938-1.306,1.942-2.611,3.08-3.75l0.201-0.067c0.167,0,3.75,2.109,4.151,2.343c0.101,0.067,0.134,0.167,0.134,0.234
		c0,0.603-1.406,3.951-1.707,4.62c0.401,0.536,0.736,1.138,1.004,1.741c0.67,0.067,4.988,0.536,4.988,1.038V10.914z M384.92,45.195
		c0,0.502-4.318,0.971-4.988,1.038c-0.268,0.636-0.603,1.206-1.004,1.741c0.301,0.67,1.707,4.018,1.707,4.62
		c0,0.101-0.033,0.167-0.134,0.234c-0.401,0.234-3.984,2.377-4.151,2.377c-0.436,0-2.946-3.348-3.281-3.851
		c-0.334,0.034-0.669,0.067-1.004,0.067s-0.67-0.033-1.004-0.067c-0.335,0.503-2.846,3.851-3.281,3.851
		c-0.167,0-3.75-2.143-4.151-2.377c-0.101-0.067-0.134-0.168-0.134-0.234c0-0.569,1.406-3.95,1.707-4.62
		c-0.401-0.535-0.736-1.104-1.004-1.741c-0.67-0.067-4.988-0.536-4.988-1.038v-4.687c0-0.502,4.318-0.971,4.988-1.038
		c0.268-0.603,0.603-1.205,1.004-1.741c-0.301-0.669-1.707-4.051-1.707-4.62c0-0.067,0.033-0.167,0.134-0.234
		c0.401-0.201,3.984-2.343,4.151-2.343c0.436,0,2.946,3.314,3.281,3.816c0.334-0.033,0.669-0.067,1.004-0.067
		s0.67,0.034,1.004,0.067c0.938-1.306,1.942-2.611,3.08-3.75l0.201-0.067c0.167,0,3.75,2.109,4.151,2.343
		c0.101,0.067,0.134,0.167,0.134,0.234c0,0.603-1.406,3.951-1.707,4.62c0.401,0.536,0.736,1.138,1.004,1.741
		c0.67,0.067,4.988,0.536,4.988,1.038V45.195z M372.064,4.285c-2.344,0-4.285,1.942-4.285,4.285c0,2.377,1.941,4.285,4.285,4.285
		c2.377,0,4.285-1.942,4.285-4.285S374.408,4.285,372.064,4.285z M372.064,38.566c-2.344,0-4.285,1.942-4.285,4.285
		c0,2.377,1.941,4.285,4.285,4.285c2.377,0,4.285-1.942,4.285-4.285S374.408,38.566,372.064,38.566z"/>
</g>
<g>
	<path fill="#FFFFFF" d="M496.11,13.893l-37.495,11.784c-0.134,0.034-0.234,0.034-0.334,0.034c-0.101,0-0.201,0-0.335-0.034
		l-21.827-6.896c-1.908,1.506-3.248,5.189-3.515,9.708c1.272,0.736,2.109,2.076,2.109,3.649c0,1.506-0.77,2.812-1.942,3.582
		l1.942,14.496c0.034,0.301-0.067,0.603-0.268,0.837c-0.201,0.234-0.502,0.368-0.803,0.368h-6.428c-0.301,0-0.603-0.134-0.803-0.368
		c-0.201-0.234-0.302-0.536-0.268-0.837l1.942-14.496c-1.172-0.77-1.942-2.076-1.942-3.582c0-1.607,0.904-2.979,2.176-3.716
		c0.201-3.917,1.205-8.135,3.281-11.048l-11.148-3.482c-0.435-0.167-0.736-0.569-0.736-1.038s0.301-0.871,0.736-1.038l37.495-11.784
		C458.08,0,458.18,0,458.281,0c0.1,0,0.201,0,0.334,0.034l37.495,11.784c0.436,0.167,0.737,0.569,0.737,1.038
		S496.546,13.726,496.11,13.893z M479.707,34.281c0.268,4.72-9.608,8.57-21.426,8.57s-21.694-3.85-21.426-8.57l0.603-10.579
		l19.216,6.06c0.536,0.167,1.071,0.234,1.607,0.234s1.071-0.067,1.607-0.234l19.216-6.06L479.707,34.281z"/>
</g>
</svg>
