<?xml version="1.0" encoding="utf-8"?>
<!-- Generator: Adobe Illustrator 15.1.0, SVG Export Plug-In . SVG Version: 6.00 Build 0)  -->
<!DOCTYPE svg PUBLIC "-//W3C//DTD SVG 1.1//EN" "http://www.w3.org/Graphics/SVG/1.1/DTD/svg11.dtd">
<svg version="1.1" id="Layer_1" xmlns="http://www.w3.org/2000/svg" xmlns:xlink="http://www.w3.org/1999/xlink" x="0px" y="0px"
	 width="31.998px" height="28px" viewBox="0 0 31.998 28" enable-background="new 0 0 31.998 28" xml:space="preserve">
<g>
	<path fill="#15467A" d="M-64.485,28.333h-32v-24h2v22h30V28.333z M-66.485,24.333h-26v-9l7-9l9,9l6-5L-66.485,24.333z"/>
</g>
<g>
	<path fill="#067EB9" d="M26.498,0h4.5c0.547,0,1,0.453,1,1v4.5c0,0.281-0.219,0.5-0.5,0.5h-1c-0.281,0-0.5-0.219-0.5-0.5V3.406
		l-3.969,3.984c1.531,1.922,2.297,4.469,1.828,7.203c-0.656,3.75-3.703,6.734-7.469,7.297c-2.375,0.359-4.609-0.219-6.39-1.406
		c-1.172,0.781-2.531,1.297-4,1.453V24h1.5c0.281,0,0.5,0.219,0.5,0.5v1c0,0.281-0.219,0.5-0.5,0.5h-1.5v1.5
		c0,0.281-0.219,0.5-0.5,0.5h-1c-0.281,0-0.5-0.219-0.5-0.5V26h-1.5c-0.281,0-0.5-0.219-0.5-0.5v-1c0-0.281,0.219-0.5,0.5-0.5h1.5
		v-2.063c-4.906-0.547-8.641-5.047-7.906-10.219c0.531-3.891,3.625-7.016,7.5-7.609c2.391-0.359,4.625,0.219,6.406,1.406
		C15.436,4.563,17.154,4,18.998,4c2.125,0,4.078,0.75,5.609,1.969L28.592,2h-2.094c-0.281,0-0.5-0.219-0.5-0.5v-1
		C25.998,0.219,26.217,0,26.498,0z M8.999,20c1.234,0,2.406-0.328,3.406-0.891C10.92,17.5,9.999,15.359,9.999,13
		s0.922-4.5,2.406-6.109C11.405,6.328,10.233,6,8.999,6c-3.859,0-7,3.141-7,7S5.139,20,8.999,20z M15.998,13
		c0-1.906-0.765-3.625-2-4.891c-1.234,1.266-2,2.984-2,4.891s0.766,3.625,2,4.891C15.233,16.625,15.998,14.906,15.998,13z
		 M25.998,13c0-3.859-3.141-7-7-7c-1.234,0-2.406,0.328-3.406,0.891c1.484,1.609,2.406,3.75,2.406,6.109s-0.922,4.5-2.406,6.109
		c1,0.563,2.171,0.891,3.406,0.891C22.857,20,25.998,16.859,25.998,13z"/>
</g>
<g>
	<path fill="#6E2B85" d="M124.548,26.406l-1.672,1.688c-0.375,0.359-0.891,0.578-1.422,0.578s-1.047-0.219-1.406-0.578l-5.672-5.688
		c-0.375-0.359-0.594-0.875-0.594-1.406c0-0.594,0.25-1.078,0.672-1.5l-4-4l-1.969,1.969c-0.141,0.141-0.328,0.219-0.531,0.219
		s-0.391-0.078-0.531-0.219c0.469,0.469,0.906,0.813,0.906,1.531c0,0.406-0.156,0.766-0.438,1.063
		c-0.531,0.563-1.094,1.313-1.938,1.313c-0.391,0-0.781-0.156-1.063-0.438l-6.375-6.375c-0.281-0.281-0.438-0.672-0.438-1.063
		c0-0.844,0.75-1.406,1.313-1.938c0.297-0.281,0.656-0.438,1.063-0.438c0.719,0,1.063,0.438,1.531,0.906
		c-0.141-0.141-0.219-0.328-0.219-0.531s0.078-0.391,0.219-0.531l5.438-5.438c0.141-0.141,0.328-0.219,0.531-0.219
		s0.391,0.078,0.531,0.219C108.017,5.063,107.58,4.719,107.58,4c0-0.406,0.156-0.766,0.438-1.063
		c0.531-0.563,1.094-1.313,1.938-1.313c0.391,0,0.781,0.156,1.063,0.438l6.375,6.375c0.281,0.281,0.438,0.672,0.438,1.063
		c0,0.844-0.75,1.406-1.313,1.938c-0.297,0.281-0.656,0.438-1.063,0.438c-0.719,0-1.063-0.438-1.531-0.906
		c0.141,0.141,0.219,0.328,0.219,0.531s-0.078,0.391-0.219,0.531L111.955,14l4,4c0.422-0.422,0.906-0.672,1.5-0.672
		c0.531,0,1.047,0.219,1.422,0.578l5.672,5.672c0.359,0.375,0.578,0.891,0.578,1.422S124.908,26.047,124.548,26.406z"/>
</g>
<g>
	<path fill="#B8285A" d="M220.332,15.469c0,0.203-0.156,0.438-0.359,0.469l-2.422,0.375c-0.125,0.406-0.297,0.797-0.5,1.188
		c0.438,0.625,0.906,1.203,1.406,1.797c0.063,0.094,0.109,0.188,0.109,0.313c0,0.109-0.031,0.219-0.109,0.297
		c-0.313,0.422-2.063,2.328-2.516,2.328c-0.125,0-0.234-0.047-0.328-0.109l-1.797-1.406c-0.391,0.203-0.781,0.359-1.203,0.484
		c-0.078,0.797-0.156,1.656-0.359,2.422c-0.063,0.219-0.25,0.375-0.469,0.375h-2.906c-0.219,0-0.438-0.172-0.469-0.391l-0.359-2.391
		c-0.406-0.125-0.797-0.297-1.172-0.484l-1.844,1.391c-0.078,0.078-0.203,0.109-0.313,0.109c-0.125,0-0.234-0.047-0.328-0.125
		c-0.406-0.375-2.25-2.047-2.25-2.5c0-0.109,0.047-0.203,0.109-0.297c0.453-0.594,0.922-1.172,1.375-1.781
		c-0.219-0.422-0.406-0.844-0.547-1.281l-2.375-0.375c-0.219-0.031-0.375-0.234-0.375-0.453v-2.891c0-0.203,0.156-0.438,0.359-0.469
		l2.422-0.375c0.125-0.406,0.297-0.797,0.5-1.188c-0.438-0.625-0.906-1.203-1.406-1.797c-0.063-0.094-0.109-0.203-0.109-0.313
		s0.031-0.219,0.109-0.313c0.313-0.422,2.063-2.313,2.516-2.313c0.125,0,0.234,0.047,0.328,0.109l1.797,1.406
		c0.391-0.203,0.781-0.359,1.203-0.5c0.078-0.781,0.156-1.641,0.359-2.406C208.472,4.156,208.66,4,208.878,4h2.906
		c0.219,0,0.438,0.172,0.469,0.391l0.359,2.391c0.406,0.125,0.797,0.297,1.172,0.484l1.844-1.391
		c0.094-0.078,0.203-0.109,0.313-0.109c0.125,0,0.234,0.047,0.328,0.125c0.406,0.375,2.25,2.063,2.25,2.5
		c0,0.109-0.047,0.203-0.109,0.297c-0.453,0.609-0.922,1.172-1.359,1.781c0.203,0.422,0.391,0.844,0.531,1.281l2.375,0.359
		c0.219,0.047,0.375,0.25,0.375,0.469V15.469z M210.332,10c-2.203,0-4,1.797-4,4s1.797,4,4,4s4-1.797,4-4S212.535,10,210.332,10z
		 M230.332,7.094c0,0.234-2.016,0.453-2.328,0.484c-0.125,0.297-0.281,0.563-0.469,0.813c0.141,0.313,0.797,1.875,0.797,2.156
		c0,0.047-0.016,0.078-0.063,0.109c-0.188,0.109-1.859,1.109-1.938,1.109c-0.203,0-1.375-1.563-1.531-1.797
		C224.644,9.984,224.488,10,224.332,10s-0.313-0.016-0.469-0.031c-0.156,0.234-1.328,1.797-1.531,1.797c-0.078,0-1.75-1-1.938-1.109
		c-0.047-0.031-0.063-0.078-0.063-0.109c0-0.266,0.656-1.844,0.797-2.156c-0.188-0.25-0.344-0.516-0.469-0.813
		c-0.313-0.031-2.328-0.25-2.328-0.484V4.906c0-0.234,2.016-0.453,2.328-0.484c0.125-0.281,0.281-0.563,0.469-0.813
		c-0.141-0.313-0.797-1.891-0.797-2.156c0-0.031,0.016-0.078,0.063-0.109c0.188-0.094,1.859-1.094,1.938-1.094
		c0.203,0,1.375,1.547,1.531,1.781C224.019,2.016,224.175,2,224.332,2s0.313,0.016,0.469,0.031c0.438-0.609,0.906-1.219,1.438-1.75
		l0.094-0.031c0.078,0,1.75,0.984,1.938,1.094c0.047,0.031,0.063,0.078,0.063,0.109c0,0.281-0.656,1.844-0.797,2.156
		c0.188,0.25,0.344,0.531,0.469,0.813c0.313,0.031,2.328,0.25,2.328,0.484V7.094z M230.332,23.094c0,0.234-2.016,0.453-2.328,0.484
		c-0.125,0.297-0.281,0.563-0.469,0.813c0.141,0.313,0.797,1.875,0.797,2.156c0,0.047-0.016,0.078-0.063,0.109
		c-0.188,0.109-1.859,1.109-1.938,1.109c-0.203,0-1.375-1.563-1.531-1.797c-0.156,0.016-0.313,0.031-0.469,0.031
		s-0.313-0.016-0.469-0.031c-0.156,0.234-1.328,1.797-1.531,1.797c-0.078,0-1.75-1-1.938-1.109
		c-0.047-0.031-0.063-0.078-0.063-0.109c0-0.266,0.656-1.844,0.797-2.156c-0.188-0.25-0.344-0.516-0.469-0.813
		c-0.313-0.031-2.328-0.25-2.328-0.484v-2.188c0-0.234,2.016-0.453,2.328-0.484c0.125-0.281,0.281-0.563,0.469-0.813
		c-0.141-0.313-0.797-1.891-0.797-2.156c0-0.031,0.016-0.078,0.063-0.109c0.188-0.094,1.859-1.094,1.938-1.094
		c0.203,0,1.375,1.547,1.531,1.781c0.156-0.016,0.313-0.031,0.469-0.031s0.313,0.016,0.469,0.031
		c0.438-0.609,0.906-1.219,1.438-1.75l0.094-0.031c0.078,0,1.75,0.984,1.938,1.094c0.047,0.031,0.063,0.078,0.063,0.109
		c0,0.281-0.656,1.844-0.797,2.156c0.188,0.25,0.344,0.531,0.469,0.813c0.313,0.031,2.328,0.25,2.328,0.484V23.094z M224.332,4
		c-1.094,0-2,0.906-2,2c0,1.109,0.906,2,2,2c1.109,0,2-0.906,2-2S225.425,4,224.332,4z M224.332,20c-1.094,0-2,0.906-2,2
		c0,1.109,0.906,2,2,2c1.109,0,2-0.906,2-2S225.425,20,224.332,20z"/>
</g>
<g>
	<path fill="#D74527" d="M278.505,11.484l-17.5,5.5C260.943,17,260.896,17,260.849,17c-0.046,0-0.093,0-0.156-0.016l-10.188-3.219
		c-0.891,0.703-1.516,2.422-1.641,4.531c0.594,0.344,0.984,0.969,0.984,1.703c0,0.703-0.359,1.313-0.906,1.672l0.906,6.766
		c0.016,0.141-0.031,0.281-0.125,0.391S249.49,29,249.35,29h-3c-0.141,0-0.281-0.063-0.375-0.172s-0.141-0.25-0.125-0.391
		l0.906-6.766c-0.547-0.359-0.906-0.969-0.906-1.672c0-0.75,0.422-1.391,1.016-1.734c0.094-1.828,0.563-3.797,1.531-5.156
		l-5.203-1.625c-0.203-0.078-0.344-0.266-0.344-0.484s0.141-0.406,0.344-0.484l17.5-5.5C260.756,5,260.803,5,260.849,5
		c0.047,0,0.094,0,0.156,0.016l17.5,5.5c0.203,0.078,0.344,0.266,0.344,0.484S278.708,11.406,278.505,11.484z M270.849,21
		c0.125,2.203-4.484,4-10,4c-5.515,0-10.125-1.797-10-4l0.281-4.938l8.969,2.828c0.25,0.078,0.5,0.109,0.75,0.109
		c0.25,0,0.5-0.031,0.75-0.109l8.969-2.828L270.849,21z"/>
</g>
</svg>
