<?xml version="1.0" encoding="utf-8"?>
<!-- Generator: Adobe Illustrator 15.1.0, SVG Export Plug-In . SVG Version: 6.00 Build 0)  -->
<!DOCTYPE svg PUBLIC "-//W3C//DTD SVG 1.1//EN" "http://www.w3.org/Graphics/SVG/1.1/DTD/svg11.dtd">
<svg version="1.1" id="Layer_1" xmlns="http://www.w3.org/2000/svg" xmlns:xlink="http://www.w3.org/1999/xlink" x="0px" y="0px"
	 width="27.047px" height="27.047px" viewBox="0 0 27.047 27.047" enable-background="new 0 0 27.047 27.047" xml:space="preserve">
<g>
	<path fill="#15467A" d="M-162.565,26.708h-32v-24h2v22h30V26.708z M-164.565,22.708h-26v-9l7-9l9,9l6-5L-164.565,22.708z"/>
</g>
<g>
	<path fill="#067EB9" d="M-71.582-1.625h4.5c0.547,0,1,0.453,1,1v4.5c0,0.281-0.219,0.5-0.5,0.5h-1c-0.281,0-0.5-0.219-0.5-0.5
		V1.781l-3.969,3.984c1.531,1.922,2.297,4.469,1.828,7.203c-0.656,3.75-3.703,6.734-7.469,7.297
		c-2.375,0.359-4.609-0.219-6.39-1.406c-1.172,0.781-2.531,1.297-4,1.453v2.063h1.5c0.281,0,0.5,0.219,0.5,0.5v1
		c0,0.281-0.219,0.5-0.5,0.5h-1.5v1.5c0,0.281-0.219,0.5-0.5,0.5h-1c-0.281,0-0.5-0.219-0.5-0.5v-1.5h-1.5
		c-0.281,0-0.5-0.219-0.5-0.5v-1c0-0.281,0.219-0.5,0.5-0.5h1.5v-2.063c-4.906-0.547-8.641-5.047-7.906-10.219
		c0.531-3.891,3.625-7.016,7.5-7.609c2.391-0.359,4.625,0.219,6.406,1.406c1.438-0.953,3.156-1.516,5-1.516
		c2.125,0,4.078,0.75,5.609,1.969l3.984-3.969h-2.094c-0.281,0-0.5-0.219-0.5-0.5v-1C-72.082-1.406-71.863-1.625-71.582-1.625z
		 M-89.081,18.375c1.234,0,2.406-0.328,3.406-0.891c-1.484-1.609-2.406-3.75-2.406-6.109s0.922-4.5,2.406-6.109
		c-1-0.563-2.172-0.891-3.406-0.891c-3.859,0-7,3.141-7,7S-92.94,18.375-89.081,18.375z M-82.082,11.375
		c0-1.906-0.765-3.625-2-4.891c-1.234,1.266-2,2.984-2,4.891s0.766,3.625,2,4.891C-82.847,15-82.082,13.281-82.082,11.375z
		 M-72.082,11.375c0-3.859-3.141-7-7-7c-1.234,0-2.406,0.328-3.406,0.891c1.484,1.609,2.406,3.75,2.406,6.109
		s-0.922,4.5-2.406,6.109c1,0.563,2.171,0.891,3.406,0.891C-75.222,18.375-72.082,15.234-72.082,11.375z"/>
</g>
<g>
	<path fill="#6E2B85" d="M26.469,24.781l-1.672,1.688c-0.375,0.359-0.891,0.578-1.422,0.578s-1.047-0.219-1.406-0.578l-5.672-5.688
		c-0.375-0.359-0.594-0.875-0.594-1.406c0-0.594,0.25-1.078,0.672-1.5l-4-4l-1.969,1.969c-0.141,0.141-0.328,0.219-0.531,0.219
		s-0.391-0.078-0.531-0.219c0.469,0.469,0.906,0.813,0.906,1.531c0,0.406-0.156,0.766-0.438,1.063C9.281,19,8.719,19.75,7.875,19.75
		c-0.391,0-0.781-0.156-1.063-0.438l-6.375-6.375C0.156,12.656,0,12.266,0,11.875c0-0.844,0.75-1.406,1.313-1.938
		C1.609,9.656,1.969,9.5,2.375,9.5c0.719,0,1.063,0.438,1.531,0.906c-0.141-0.141-0.219-0.328-0.219-0.531s0.078-0.391,0.219-0.531
		l5.438-5.438c0.141-0.141,0.328-0.219,0.531-0.219s0.391,0.078,0.531,0.219C9.938,3.438,9.5,3.094,9.5,2.375
		c0-0.406,0.156-0.766,0.438-1.063C10.469,0.75,11.031,0,11.875,0c0.391,0,0.781,0.156,1.063,0.438l6.375,6.375
		c0.281,0.281,0.438,0.672,0.438,1.063c0,0.844-0.75,1.406-1.313,1.938c-0.297,0.281-0.656,0.438-1.063,0.438
		c-0.719,0-1.063-0.438-1.531-0.906c0.141,0.141,0.219,0.328,0.219,0.531s-0.078,0.391-0.219,0.531l-1.969,1.969l4,4
		c0.422-0.422,0.906-0.672,1.5-0.672c0.531,0,1.047,0.219,1.422,0.578l5.672,5.672c0.359,0.375,0.578,0.891,0.578,1.422
		S26.828,24.422,26.469,24.781z"/>
</g>
<g>
	<path fill="#B8285A" d="M122.252,13.844c0,0.203-0.156,0.438-0.359,0.469l-2.422,0.375c-0.125,0.406-0.297,0.797-0.5,1.188
		c0.438,0.625,0.906,1.203,1.406,1.797c0.063,0.094,0.109,0.188,0.109,0.313c0,0.109-0.031,0.219-0.109,0.297
		c-0.313,0.422-2.063,2.328-2.516,2.328c-0.125,0-0.234-0.047-0.328-0.109l-1.797-1.406c-0.391,0.203-0.781,0.359-1.203,0.484
		c-0.078,0.797-0.156,1.656-0.359,2.422c-0.063,0.219-0.25,0.375-0.469,0.375h-2.906c-0.219,0-0.438-0.172-0.469-0.391l-0.359-2.391
		c-0.406-0.125-0.797-0.297-1.172-0.484l-1.844,1.391c-0.078,0.078-0.203,0.109-0.313,0.109c-0.125,0-0.234-0.047-0.328-0.125
		c-0.406-0.375-2.25-2.047-2.25-2.5c0-0.109,0.047-0.203,0.109-0.297c0.453-0.594,0.922-1.172,1.375-1.781
		c-0.219-0.422-0.406-0.844-0.547-1.281l-2.375-0.375c-0.219-0.031-0.375-0.234-0.375-0.453v-2.891c0-0.203,0.156-0.438,0.359-0.469
		l2.422-0.375c0.125-0.406,0.297-0.797,0.5-1.188c-0.438-0.625-0.906-1.203-1.406-1.797c-0.063-0.094-0.109-0.203-0.109-0.313
		s0.031-0.219,0.109-0.313c0.313-0.422,2.063-2.313,2.516-2.313c0.125,0,0.234,0.047,0.328,0.109l1.797,1.406
		c0.391-0.203,0.781-0.359,1.203-0.5c0.078-0.781,0.156-1.641,0.359-2.406c0.063-0.219,0.25-0.375,0.469-0.375h2.906
		c0.219,0,0.438,0.172,0.469,0.391l0.359,2.391c0.406,0.125,0.797,0.297,1.172,0.484l1.844-1.391
		c0.094-0.078,0.203-0.109,0.313-0.109c0.125,0,0.234,0.047,0.328,0.125c0.406,0.375,2.25,2.063,2.25,2.5
		c0,0.109-0.047,0.203-0.109,0.297c-0.453,0.609-0.922,1.172-1.359,1.781c0.203,0.422,0.391,0.844,0.531,1.281l2.375,0.359
		c0.219,0.047,0.375,0.25,0.375,0.469V13.844z M112.252,8.375c-2.203,0-4,1.797-4,4s1.797,4,4,4s4-1.797,4-4
		S114.455,8.375,112.252,8.375z M132.252,5.469c0,0.234-2.016,0.453-2.328,0.484c-0.125,0.297-0.281,0.563-0.469,0.813
		c0.141,0.313,0.797,1.875,0.797,2.156c0,0.047-0.016,0.078-0.063,0.109c-0.188,0.109-1.859,1.109-1.938,1.109
		c-0.203,0-1.375-1.563-1.531-1.797c-0.156,0.016-0.313,0.031-0.469,0.031s-0.313-0.016-0.469-0.031
		c-0.156,0.234-1.328,1.797-1.531,1.797c-0.078,0-1.75-1-1.938-1.109c-0.047-0.031-0.063-0.078-0.063-0.109
		c0-0.266,0.656-1.844,0.797-2.156c-0.188-0.25-0.344-0.516-0.469-0.813c-0.313-0.031-2.328-0.25-2.328-0.484V3.281
		c0-0.234,2.016-0.453,2.328-0.484c0.125-0.281,0.281-0.563,0.469-0.813c-0.141-0.313-0.797-1.891-0.797-2.156
		c0-0.031,0.016-0.078,0.063-0.109c0.188-0.094,1.859-1.094,1.938-1.094c0.203,0,1.375,1.547,1.531,1.781
		c0.156-0.016,0.313-0.031,0.469-0.031s0.313,0.016,0.469,0.031c0.438-0.609,0.906-1.219,1.438-1.75l0.094-0.031
		c0.078,0,1.75,0.984,1.938,1.094c0.047,0.031,0.063,0.078,0.063,0.109c0,0.281-0.656,1.844-0.797,2.156
		c0.188,0.25,0.344,0.531,0.469,0.813c0.313,0.031,2.328,0.25,2.328,0.484V5.469z M132.252,21.469c0,0.234-2.016,0.453-2.328,0.484
		c-0.125,0.297-0.281,0.563-0.469,0.813c0.141,0.313,0.797,1.875,0.797,2.156c0,0.047-0.016,0.078-0.063,0.109
		c-0.188,0.109-1.859,1.109-1.938,1.109c-0.203,0-1.375-1.563-1.531-1.797c-0.156,0.016-0.313,0.031-0.469,0.031
		s-0.313-0.016-0.469-0.031c-0.156,0.234-1.328,1.797-1.531,1.797c-0.078,0-1.75-1-1.938-1.109
		c-0.047-0.031-0.063-0.078-0.063-0.109c0-0.266,0.656-1.844,0.797-2.156c-0.188-0.25-0.344-0.516-0.469-0.813
		c-0.313-0.031-2.328-0.25-2.328-0.484v-2.188c0-0.234,2.016-0.453,2.328-0.484c0.125-0.281,0.281-0.563,0.469-0.813
		c-0.141-0.313-0.797-1.891-0.797-2.156c0-0.031,0.016-0.078,0.063-0.109c0.188-0.094,1.859-1.094,1.938-1.094
		c0.203,0,1.375,1.547,1.531,1.781c0.156-0.016,0.313-0.031,0.469-0.031s0.313,0.016,0.469,0.031
		c0.438-0.609,0.906-1.219,1.438-1.75l0.094-0.031c0.078,0,1.75,0.984,1.938,1.094c0.047,0.031,0.063,0.078,0.063,0.109
		c0,0.281-0.656,1.844-0.797,2.156c0.188,0.25,0.344,0.531,0.469,0.813c0.313,0.031,2.328,0.25,2.328,0.484V21.469z M126.252,2.375
		c-1.094,0-2,0.906-2,2c0,1.109,0.906,2,2,2c1.109,0,2-0.906,2-2S127.346,2.375,126.252,2.375z M126.252,18.375
		c-1.094,0-2,0.906-2,2c0,1.109,0.906,2,2,2c1.109,0,2-0.906,2-2S127.346,18.375,126.252,18.375z"/>
</g>
<g>
	<path fill="#D74527" d="M180.426,9.859l-17.5,5.5c-0.063,0.016-0.109,0.016-0.156,0.016c-0.046,0-0.093,0-0.156-0.016
		l-10.188-3.219c-0.891,0.703-1.516,2.422-1.641,4.531c0.594,0.344,0.984,0.969,0.984,1.703c0,0.703-0.359,1.313-0.906,1.672
		l0.906,6.766c0.016,0.141-0.031,0.281-0.125,0.391s-0.234,0.172-0.375,0.172h-3c-0.141,0-0.281-0.063-0.375-0.172
		s-0.141-0.25-0.125-0.391l0.906-6.766c-0.547-0.359-0.906-0.969-0.906-1.672c0-0.75,0.422-1.391,1.016-1.734
		c0.094-1.828,0.563-3.797,1.531-5.156l-5.203-1.625c-0.203-0.078-0.344-0.266-0.344-0.484s0.141-0.406,0.344-0.484l17.5-5.5
		c0.063-0.016,0.109-0.016,0.156-0.016c0.047,0,0.094,0,0.156,0.016l17.5,5.5c0.203,0.078,0.344,0.266,0.344,0.484
		S180.629,9.781,180.426,9.859z M172.77,19.375c0.125,2.203-4.484,4-10,4c-5.515,0-10.125-1.797-10-4l0.281-4.938l8.969,2.828
		c0.25,0.078,0.5,0.109,0.75,0.109c0.25,0,0.5-0.031,0.75-0.109l8.969-2.828L172.77,19.375z"/>
</g>
</svg>
