<?xml version="1.0" encoding="utf-8"?>
<!-- Generator: Adobe Illustrator 15.1.0, SVG Export Plug-In . SVG Version: 6.00 Build 0)  -->
<!DOCTYPE svg PUBLIC "-//W3C//DTD SVG 1.1//EN" "http://www.w3.org/Graphics/SVG/1.1/DTD/svg11.dtd">
<svg version="1.1" id="Layer_1" xmlns="http://www.w3.org/2000/svg" xmlns:xlink="http://www.w3.org/1999/xlink" x="0px" y="0px"
	 width="57.95px" height="58.151px" viewBox="0 0 57.95 58.151" enable-background="new 0 0 57.95 58.151" xml:space="preserve">
<g>
	<path fill="#FFFFFF" d="M-151.563,54.368h-68.563V2.946h4.285v47.137h64.277V54.368z M-155.848,45.798h-55.707V26.515
		l14.998-19.283l19.283,19.283l12.855-10.713L-155.848,45.798z"/>
</g>
<g>
	<path fill="#FFFFFF" d="M-55.347-1.339h9.642c1.172,0,2.143,0.971,2.143,2.143v9.642c0,0.603-0.469,1.071-1.071,1.071h-2.143
		c-0.603,0-1.071-0.469-1.071-1.071V5.959l-8.503,8.537c3.28,4.118,4.921,9.575,3.916,15.433
		c-1.405,8.035-7.934,14.429-16.002,15.634c-5.089,0.77-9.876-0.469-13.692-3.013c-2.511,1.674-5.423,2.779-8.57,3.114v4.419h3.214
		c0.603,0,1.071,0.469,1.071,1.071v2.143c0,0.603-0.469,1.071-1.071,1.071h-3.214v3.214c0,0.603-0.469,1.071-1.071,1.071h-2.143
		c-0.603,0-1.071-0.469-1.071-1.071v-3.214h-3.214c-0.603,0-1.071-0.469-1.071-1.071v-2.143c0-0.603,0.469-1.071,1.071-1.071h3.214
		v-4.419c-10.512-1.172-18.513-10.813-16.94-21.895c1.138-8.336,7.767-15.032,16.069-16.304c5.122-0.77,9.91,0.469,13.726,3.013
		c3.08-2.042,6.763-3.248,10.713-3.248c4.553,0,8.737,1.607,12.019,4.218l8.537-8.503h-4.486c-0.603,0-1.071-0.469-1.071-1.071
		v-2.143C-56.418-0.87-55.949-1.339-55.347-1.339z M-92.842,41.513c2.645,0,5.156-0.703,7.298-1.908
		c-3.181-3.448-5.156-8.035-5.156-13.09s1.975-9.642,5.156-13.09c-2.143-1.205-4.654-1.908-7.298-1.908
		c-8.269,0-14.998,6.729-14.998,14.998S-101.111,41.513-92.842,41.513z M-77.844,26.515c0-4.084-1.641-7.767-4.285-10.479
		c-2.645,2.712-4.285,6.394-4.285,10.479s1.641,7.767,4.285,10.479C-79.484,34.281-77.844,30.599-77.844,26.515z M-56.418,26.515
		c0-8.269-6.729-14.998-14.998-14.998c-2.645,0-5.155,0.703-7.298,1.908c3.18,3.448,5.156,8.035,5.156,13.09
		s-1.976,9.642-5.156,13.09c2.143,1.205,4.654,1.908,7.298,1.908C-63.147,41.513-56.418,34.784-56.418,26.515z"/>
</g>
<g>
	<path fill="#FFFFFF" d="M56.711,53.096l-3.582,3.616c-0.804,0.77-1.908,1.238-3.047,1.238c-1.138,0-2.242-0.469-3.013-1.238
		L34.917,44.526c-0.804-0.77-1.272-1.875-1.272-3.013c0-1.272,0.536-2.31,1.439-3.214l-8.57-8.57l-4.218,4.218
		c-0.301,0.301-0.703,0.469-1.138,0.469s-0.837-0.167-1.138-0.469c1.004,1.004,1.941,1.741,1.941,3.281
		c0,0.871-0.334,1.641-0.937,2.276c-1.138,1.205-2.344,2.813-4.151,2.813c-0.837,0-1.674-0.335-2.276-0.938L0.937,27.72
		C0.334,27.117,0,26.28,0,25.443c0-1.808,1.606-3.013,2.812-4.151c0.636-0.603,1.406-0.938,2.276-0.938
		c1.54,0,2.276,0.938,3.281,1.942C8.068,21.995,7.9,21.593,7.9,21.158s0.167-0.837,0.469-1.138L20.02,8.37
		c0.301-0.301,0.703-0.469,1.138-0.469s0.837,0.167,1.138,0.469c-1.004-1.004-1.941-1.741-1.941-3.281
		c0-0.871,0.334-1.641,0.937-2.276C22.43,1.607,23.635,0,25.443,0c0.837,0,1.674,0.335,2.276,0.938l13.659,13.659
		c0.603,0.603,0.938,1.439,0.938,2.276c0,1.808-1.606,3.013-2.812,4.151c-0.637,0.603-1.406,0.938-2.277,0.938
		c-1.539,0-2.276-0.938-3.28-1.942c0.301,0.301,0.469,0.703,0.469,1.138s-0.168,0.837-0.469,1.138l-4.218,4.218l8.57,8.57
		c0.903-0.904,1.941-1.439,3.213-1.439c1.139,0,2.243,0.469,3.047,1.239l12.152,12.152c0.771,0.803,1.239,1.908,1.239,3.046
		C57.95,51.222,57.481,52.326,56.711,53.096z"/>
</g>
<g>
	<path fill="#FFFFFF" d="M143.369,31.804c0,0.435-0.335,0.938-0.77,1.004l-5.189,0.803c-0.268,0.871-0.636,1.708-1.071,2.544
		c0.938,1.339,1.941,2.578,3.013,3.85c0.134,0.201,0.234,0.401,0.234,0.669c0,0.234-0.066,0.469-0.234,0.636
		c-0.669,0.904-4.419,4.988-5.39,4.988c-0.268,0-0.502-0.1-0.703-0.234l-3.85-3.013c-0.837,0.435-1.674,0.77-2.578,1.038
		c-0.167,1.708-0.335,3.549-0.77,5.189c-0.134,0.469-0.536,0.804-1.004,0.804h-6.227c-0.469,0-0.938-0.368-1.004-0.837l-0.77-5.122
		c-0.871-0.268-1.708-0.636-2.511-1.038l-3.951,2.979c-0.167,0.167-0.435,0.234-0.669,0.234c-0.268,0-0.502-0.1-0.703-0.268
		c-0.87-0.804-4.821-4.386-4.821-5.356c0-0.234,0.101-0.435,0.234-0.636c0.971-1.272,1.975-2.511,2.946-3.816
		c-0.469-0.904-0.871-1.808-1.172-2.745l-5.088-0.803c-0.469-0.067-0.804-0.502-0.804-0.971V25.51c0-0.435,0.335-0.938,0.77-1.004
		l5.189-0.803c0.268-0.871,0.636-1.708,1.071-2.544c-0.938-1.339-1.941-2.578-3.013-3.85c-0.134-0.201-0.234-0.435-0.234-0.669
		s0.067-0.469,0.234-0.669c0.669-0.904,4.419-4.955,5.39-4.955c0.268,0,0.502,0.1,0.703,0.234l3.85,3.013
		c0.837-0.435,1.674-0.77,2.578-1.071c0.167-1.674,0.335-3.515,0.77-5.155c0.134-0.469,0.536-0.804,1.004-0.804h6.227
		c0.469,0,0.938,0.368,1.004,0.837l0.77,5.122c0.871,0.268,1.708,0.636,2.511,1.038l3.95-2.979c0.201-0.167,0.436-0.234,0.67-0.234
		c0.268,0,0.502,0.1,0.703,0.268c0.87,0.804,4.82,4.419,4.82,5.356c0,0.234-0.1,0.435-0.234,0.636
		c-0.971,1.306-1.975,2.511-2.912,3.816c0.436,0.904,0.837,1.808,1.138,2.745l5.089,0.77c0.469,0.101,0.804,0.536,0.804,1.004
		V31.804z M121.943,20.087c-4.72,0-8.57,3.85-8.57,8.57s3.85,8.57,8.57,8.57s8.57-3.85,8.57-8.57S126.664,20.087,121.943,20.087z
		 M164.795,13.86c0,0.502-4.318,0.971-4.988,1.038c-0.268,0.636-0.603,1.205-1.004,1.741c0.301,0.669,1.707,4.018,1.707,4.62
		c0,0.1-0.033,0.167-0.134,0.234c-0.401,0.234-3.984,2.377-4.151,2.377c-0.436,0-2.946-3.348-3.281-3.85
		c-0.334,0.033-0.669,0.067-1.004,0.067s-0.67-0.034-1.004-0.067c-0.335,0.502-2.846,3.85-3.281,3.85
		c-0.167,0-3.75-2.143-4.151-2.377c-0.101-0.067-0.134-0.167-0.134-0.234c0-0.569,1.406-3.951,1.707-4.62
		c-0.401-0.536-0.736-1.104-1.004-1.741c-0.67-0.067-4.988-0.536-4.988-1.038V9.173c0-0.502,4.318-0.971,4.988-1.038
		c0.268-0.603,0.603-1.205,1.004-1.741c-0.301-0.669-1.707-4.051-1.707-4.62c0-0.067,0.033-0.167,0.134-0.234
		c0.401-0.201,3.984-2.343,4.151-2.343c0.436,0,2.946,3.314,3.281,3.816c0.334-0.033,0.669-0.067,1.004-0.067
		s0.67,0.034,1.004,0.067c0.938-1.306,1.942-2.611,3.08-3.75l0.201-0.067c0.167,0,3.75,2.109,4.151,2.343
		c0.101,0.067,0.134,0.167,0.134,0.234c0,0.603-1.406,3.951-1.707,4.62c0.401,0.536,0.736,1.138,1.004,1.741
		c0.67,0.067,4.988,0.536,4.988,1.038V13.86z M164.795,48.141c0,0.502-4.318,0.971-4.988,1.038
		c-0.268,0.636-0.603,1.206-1.004,1.741c0.301,0.67,1.707,4.018,1.707,4.62c0,0.101-0.033,0.167-0.134,0.234
		c-0.401,0.234-3.984,2.377-4.151,2.377c-0.436,0-2.946-3.348-3.281-3.851c-0.334,0.034-0.669,0.067-1.004,0.067
		s-0.67-0.033-1.004-0.067c-0.335,0.503-2.846,3.851-3.281,3.851c-0.167,0-3.75-2.143-4.151-2.377
		c-0.101-0.067-0.134-0.168-0.134-0.234c0-0.569,1.406-3.95,1.707-4.62c-0.401-0.535-0.736-1.104-1.004-1.741
		c-0.67-0.067-4.988-0.536-4.988-1.038v-4.687c0-0.502,4.318-0.971,4.988-1.038c0.268-0.603,0.603-1.205,1.004-1.741
		c-0.301-0.669-1.707-4.051-1.707-4.62c0-0.067,0.033-0.167,0.134-0.234c0.401-0.201,3.984-2.343,4.151-2.343
		c0.436,0,2.946,3.314,3.281,3.816c0.334-0.033,0.669-0.067,1.004-0.067s0.67,0.034,1.004,0.067c0.938-1.306,1.942-2.611,3.08-3.75
		l0.201-0.067c0.167,0,3.75,2.109,4.151,2.343c0.101,0.067,0.134,0.167,0.134,0.234c0,0.603-1.406,3.951-1.707,4.62
		c0.401,0.536,0.736,1.138,1.004,1.741c0.67,0.067,4.988,0.536,4.988,1.038V48.141z M151.939,7.231
		c-2.344,0-4.285,1.942-4.285,4.285c0,2.377,1.941,4.285,4.285,4.285c2.377,0,4.285-1.942,4.285-4.285S154.283,7.231,151.939,7.231z
		 M151.939,41.513c-2.344,0-4.285,1.942-4.285,4.285c0,2.377,1.941,4.285,4.285,4.285c2.377,0,4.285-1.942,4.285-4.285
		S154.283,41.513,151.939,41.513z"/>
</g>
<g>
	<path fill="#FFFFFF" d="M275.985,16.839L238.49,28.624c-0.134,0.034-0.234,0.034-0.334,0.034c-0.101,0-0.201,0-0.335-0.034
		l-21.827-6.896c-1.908,1.506-3.248,5.189-3.515,9.708c1.272,0.736,2.109,2.076,2.109,3.649c0,1.506-0.77,2.812-1.942,3.582
		l1.942,14.496c0.034,0.301-0.067,0.603-0.268,0.837c-0.201,0.234-0.502,0.368-0.803,0.368h-6.428c-0.301,0-0.603-0.134-0.803-0.368
		c-0.201-0.234-0.302-0.536-0.268-0.837l1.942-14.496c-1.172-0.77-1.942-2.076-1.942-3.582c0-1.607,0.904-2.979,2.176-3.716
		c0.201-3.917,1.205-8.135,3.281-11.048l-11.148-3.482c-0.435-0.167-0.736-0.569-0.736-1.038s0.301-0.871,0.736-1.038L237.821,2.98
		c0.134-0.034,0.234-0.034,0.335-0.034c0.1,0,0.201,0,0.334,0.034l37.495,11.784c0.436,0.167,0.737,0.569,0.737,1.038
		S276.421,16.672,275.985,16.839z M259.582,37.228c0.268,4.72-9.608,8.57-21.426,8.57s-21.694-3.85-21.426-8.57l0.603-10.579
		l19.216,6.06c0.536,0.167,1.071,0.234,1.607,0.234s1.071-0.067,1.607-0.234l19.216-6.06L259.582,37.228z"/>
</g>
</svg>
