<?xml version="1.0" encoding="utf-8"?>
<!-- Generator: Adobe Illustrator 15.1.0, SVG Export Plug-In . SVG Version: 6.00 Build 0)  -->
<!DOCTYPE svg PUBLIC "-//W3C//DTD SVG 1.1//EN" "http://www.w3.org/Graphics/SVG/1.1/DTD/svg11.dtd">
<svg version="1.1" id="Layer_1" xmlns="http://www.w3.org/2000/svg" xmlns:xlink="http://www.w3.org/1999/xlink" x="0px" y="0px"
	 width="30px" height="27.516px" viewBox="0 0 30 27.516" enable-background="new 0 0 30 27.516" xml:space="preserve">
<g>
	<path fill="#15467A" d="M-264.817,28.083h-32v-24h2v22h30V28.083z M-266.817,24.083h-26v-9l7-9l9,9l6-5L-266.817,24.083z"/>
</g>
<g>
	<path fill="#067EB9" d="M-173.833-0.25h4.5c0.547,0,1,0.453,1,1v4.5c0,0.281-0.219,0.5-0.5,0.5h-1c-0.281,0-0.5-0.219-0.5-0.5
		V3.156l-3.969,3.984c1.531,1.922,2.297,4.469,1.828,7.203c-0.656,3.75-3.703,6.734-7.469,7.297
		c-2.375,0.359-4.609-0.219-6.39-1.406c-1.172,0.781-2.531,1.297-4,1.453v2.063h1.5c0.281,0,0.5,0.219,0.5,0.5v1
		c0,0.281-0.219,0.5-0.5,0.5h-1.5v1.5c0,0.281-0.219,0.5-0.5,0.5h-1c-0.281,0-0.5-0.219-0.5-0.5v-1.5h-1.5
		c-0.281,0-0.5-0.219-0.5-0.5v-1c0-0.281,0.219-0.5,0.5-0.5h1.5v-2.063c-4.906-0.547-8.641-5.047-7.906-10.219
		c0.531-3.891,3.625-7.016,7.5-7.609c2.391-0.359,4.625,0.219,6.406,1.406c1.438-0.953,3.156-1.516,5-1.516
		c2.125,0,4.078,0.75,5.609,1.969l3.984-3.969h-2.094c-0.281,0-0.5-0.219-0.5-0.5v-1C-174.333-0.031-174.115-0.25-173.833-0.25z
		 M-191.333,19.75c1.234,0,2.406-0.328,3.406-0.891c-1.484-1.609-2.406-3.75-2.406-6.109s0.922-4.5,2.406-6.109
		c-1-0.563-2.172-0.891-3.406-0.891c-3.859,0-7,3.141-7,7S-195.192,19.75-191.333,19.75z M-184.333,12.75
		c0-1.906-0.765-3.625-2-4.891c-1.234,1.266-2,2.984-2,4.891s0.766,3.625,2,4.891C-185.099,16.375-184.333,14.656-184.333,12.75z
		 M-174.333,12.75c0-3.859-3.141-7-7-7c-1.234,0-2.406,0.328-3.406,0.891c1.484,1.609,2.406,3.75,2.406,6.109
		s-0.922,4.5-2.406,6.109c1,0.563,2.171,0.891,3.406,0.891C-177.474,19.75-174.333,16.609-174.333,12.75z"/>
</g>
<g>
	<path fill="#6E2B85" d="M-75.783,26.156l-1.672,1.688c-0.375,0.359-0.891,0.578-1.422,0.578s-1.047-0.219-1.406-0.578l-5.672-5.688
		c-0.375-0.359-0.594-0.875-0.594-1.406c0-0.594,0.25-1.078,0.672-1.5l-4-4l-1.969,1.969c-0.141,0.141-0.328,0.219-0.531,0.219
		s-0.391-0.078-0.531-0.219c0.469,0.469,0.906,0.813,0.906,1.531c0,0.406-0.156,0.766-0.438,1.063
		c-0.531,0.563-1.094,1.313-1.938,1.313c-0.391,0-0.781-0.156-1.063-0.438l-6.375-6.375c-0.281-0.281-0.438-0.672-0.438-1.063
		c0-0.844,0.75-1.406,1.313-1.938c0.297-0.281,0.656-0.438,1.063-0.438c0.719,0,1.063,0.438,1.531,0.906
		c-0.141-0.141-0.219-0.328-0.219-0.531s0.078-0.391,0.219-0.531l5.438-5.438c0.141-0.141,0.328-0.219,0.531-0.219
		s0.391,0.078,0.531,0.219c-0.469-0.469-0.906-0.813-0.906-1.531c0-0.406,0.156-0.766,0.438-1.063
		c0.531-0.563,1.094-1.313,1.938-1.313c0.391,0,0.781,0.156,1.063,0.438l6.375,6.375c0.281,0.281,0.438,0.672,0.438,1.063
		c0,0.844-0.75,1.406-1.313,1.938c-0.297,0.281-0.656,0.438-1.063,0.438c-0.719,0-1.063-0.438-1.531-0.906
		c0.141,0.141,0.219,0.328,0.219,0.531s-0.078,0.391-0.219,0.531l-1.969,1.969l4,4c0.422-0.422,0.906-0.672,1.5-0.672
		c0.531,0,1.047,0.219,1.422,0.578l5.672,5.672c0.359,0.375,0.578,0.891,0.578,1.422S-75.424,25.797-75.783,26.156z"/>
</g>
<g>
	<path fill="#B8285A" d="M20,15.219c0,0.203-0.156,0.438-0.359,0.469l-2.422,0.375c-0.125,0.406-0.297,0.797-0.5,1.188
		c0.438,0.625,0.906,1.203,1.406,1.797c0.063,0.094,0.109,0.188,0.109,0.313c0,0.109-0.031,0.219-0.109,0.297
		c-0.313,0.422-2.063,2.328-2.516,2.328c-0.125,0-0.234-0.047-0.328-0.109l-1.797-1.406c-0.391,0.203-0.781,0.359-1.203,0.484
		c-0.078,0.797-0.156,1.656-0.359,2.422c-0.063,0.219-0.25,0.375-0.469,0.375H8.547c-0.219,0-0.438-0.172-0.469-0.391l-0.359-2.391
		c-0.406-0.125-0.797-0.297-1.172-0.484l-1.844,1.391c-0.078,0.078-0.203,0.109-0.313,0.109c-0.125,0-0.234-0.047-0.328-0.125
		c-0.406-0.375-2.25-2.047-2.25-2.5c0-0.109,0.047-0.203,0.109-0.297c0.453-0.594,0.922-1.172,1.375-1.781
		C3.078,16.859,2.891,16.438,2.75,16l-2.375-0.375C0.156,15.594,0,15.391,0,15.172v-2.891c0-0.203,0.156-0.438,0.359-0.469
		l2.422-0.375c0.125-0.406,0.297-0.797,0.5-1.188C2.844,9.625,2.375,9.047,1.875,8.453C1.813,8.359,1.766,8.25,1.766,8.141
		s0.031-0.219,0.109-0.313c0.313-0.422,2.063-2.313,2.516-2.313c0.125,0,0.234,0.047,0.328,0.109l1.797,1.406
		c0.391-0.203,0.781-0.359,1.203-0.5C7.797,5.75,7.875,4.891,8.078,4.125C8.141,3.906,8.328,3.75,8.547,3.75h2.906
		c0.219,0,0.438,0.172,0.469,0.391l0.359,2.391c0.406,0.125,0.797,0.297,1.172,0.484l1.844-1.391
		c0.094-0.078,0.203-0.109,0.313-0.109c0.125,0,0.234,0.047,0.328,0.125c0.406,0.375,2.25,2.063,2.25,2.5
		c0,0.109-0.047,0.203-0.109,0.297c-0.453,0.609-0.922,1.172-1.359,1.781c0.203,0.422,0.391,0.844,0.531,1.281l2.375,0.359
		C19.844,11.906,20,12.109,20,12.328V15.219z M10,9.75c-2.203,0-4,1.797-4,4s1.797,4,4,4s4-1.797,4-4S12.203,9.75,10,9.75z
		 M30,6.844c0,0.234-2.016,0.453-2.328,0.484c-0.125,0.297-0.281,0.563-0.469,0.813C27.344,8.453,28,10.016,28,10.297
		c0,0.047-0.016,0.078-0.063,0.109c-0.188,0.109-1.859,1.109-1.938,1.109c-0.203,0-1.375-1.563-1.531-1.797
		C24.313,9.734,24.156,9.75,24,9.75s-0.313-0.016-0.469-0.031c-0.156,0.234-1.328,1.797-1.531,1.797c-0.078,0-1.75-1-1.938-1.109
		C20.016,10.375,20,10.328,20,10.297c0-0.266,0.656-1.844,0.797-2.156c-0.188-0.25-0.344-0.516-0.469-0.813
		C20.016,7.297,18,7.078,18,6.844V4.656c0-0.234,2.016-0.453,2.328-0.484c0.125-0.281,0.281-0.563,0.469-0.813
		C20.656,3.047,20,1.469,20,1.203c0-0.031,0.016-0.078,0.063-0.109C20.25,1,21.922,0,22,0c0.203,0,1.375,1.547,1.531,1.781
		C23.688,1.766,23.844,1.75,24,1.75s0.313,0.016,0.469,0.031c0.438-0.609,0.906-1.219,1.438-1.75L26,0
		c0.078,0,1.75,0.984,1.938,1.094C27.984,1.125,28,1.172,28,1.203c0,0.281-0.656,1.844-0.797,2.156
		c0.188,0.25,0.344,0.531,0.469,0.813C27.984,4.203,30,4.422,30,4.656V6.844z M30,22.844c0,0.234-2.016,0.453-2.328,0.484
		c-0.125,0.297-0.281,0.563-0.469,0.813C27.344,24.453,28,26.016,28,26.297c0,0.047-0.016,0.078-0.063,0.109
		c-0.188,0.109-1.859,1.109-1.938,1.109c-0.203,0-1.375-1.563-1.531-1.797C24.313,25.734,24.156,25.75,24,25.75
		s-0.313-0.016-0.469-0.031c-0.156,0.234-1.328,1.797-1.531,1.797c-0.078,0-1.75-1-1.938-1.109C20.016,26.375,20,26.328,20,26.297
		c0-0.266,0.656-1.844,0.797-2.156c-0.188-0.25-0.344-0.516-0.469-0.813C20.016,23.297,18,23.078,18,22.844v-2.188
		c0-0.234,2.016-0.453,2.328-0.484c0.125-0.281,0.281-0.563,0.469-0.813C20.656,19.047,20,17.469,20,17.203
		c0-0.031,0.016-0.078,0.063-0.109C20.25,17,21.922,16,22,16c0.203,0,1.375,1.547,1.531,1.781c0.156-0.016,0.313-0.031,0.469-0.031
		s0.313,0.016,0.469,0.031c0.438-0.609,0.906-1.219,1.438-1.75L26,16c0.078,0,1.75,0.984,1.938,1.094
		C27.984,17.125,28,17.172,28,17.203c0,0.281-0.656,1.844-0.797,2.156c0.188,0.25,0.344,0.531,0.469,0.813
		C27.984,20.203,30,20.422,30,20.656V22.844z M24,3.75c-1.094,0-2,0.906-2,2c0,1.109,0.906,2,2,2c1.109,0,2-0.906,2-2
		S25.094,3.75,24,3.75z M24,19.75c-1.094,0-2,0.906-2,2c0,1.109,0.906,2,2,2c1.109,0,2-0.906,2-2S25.094,19.75,24,19.75z"/>
</g>
<g>
	<path fill="#D74527" d="M78.174,11.234l-17.5,5.5c-0.063,0.016-0.109,0.016-0.156,0.016c-0.046,0-0.093,0-0.156-0.016
		l-10.188-3.219c-0.891,0.703-1.516,2.422-1.641,4.531c0.594,0.344,0.984,0.969,0.984,1.703c0,0.703-0.359,1.313-0.906,1.672
		l0.906,6.766c0.016,0.141-0.031,0.281-0.125,0.391s-0.234,0.172-0.375,0.172h-3c-0.141,0-0.281-0.063-0.375-0.172
		s-0.141-0.25-0.125-0.391l0.906-6.766c-0.547-0.359-0.906-0.969-0.906-1.672c0-0.75,0.422-1.391,1.016-1.734
		c0.094-1.828,0.563-3.797,1.531-5.156l-5.203-1.625c-0.203-0.078-0.344-0.266-0.344-0.484s0.141-0.406,0.344-0.484l17.5-5.5
		c0.063-0.016,0.109-0.016,0.156-0.016c0.047,0,0.094,0,0.156,0.016l17.5,5.5c0.203,0.078,0.344,0.266,0.344,0.484
		S78.377,11.156,78.174,11.234z M70.518,20.75c0.125,2.203-4.484,4-10,4c-5.515,0-10.125-1.797-10-4l0.281-4.938l8.969,2.828
		c0.25,0.078,0.5,0.109,0.75,0.109c0.25,0,0.5-0.031,0.75-0.109l8.969-2.828L70.518,20.75z"/>
</g>
</svg>
