<?xml version="1.0" encoding="utf-8"?>
<!-- Generator: Adobe Illustrator 15.1.0, SVG Export Plug-In . SVG Version: 6.00 Build 0)  -->
<!DOCTYPE svg PUBLIC "-//W3C//DTD SVG 1.1//EN" "http://www.w3.org/Graphics/SVG/1.1/DTD/svg11.dtd">
<svg version="1.1" id="Layer_1" xmlns="http://www.w3.org/2000/svg" xmlns:xlink="http://www.w3.org/1999/xlink" x="0px" y="0px"
	 width="36px" height="24px" viewBox="0 0 36 24" enable-background="new 0 0 36 24" xml:space="preserve">
<g>
	<path fill="#15467A" d="M-307.335,23.333h-32v-24h2v22h30V23.333z M-309.335,19.333h-26v-9l7-9l9,9l6-5L-309.335,19.333z"/>
</g>
<g>
	<path fill="#067EB9" d="M-216.352-5h4.5c0.547,0,1,0.453,1,1v4.5c0,0.281-0.219,0.5-0.5,0.5h-1c-0.281,0-0.5-0.219-0.5-0.5v-2.094
		l-3.969,3.984c1.531,1.922,2.297,4.469,1.828,7.203c-0.656,3.75-3.703,6.734-7.469,7.297c-2.375,0.359-4.609-0.219-6.39-1.406
		c-1.172,0.781-2.531,1.297-4,1.453V19h1.5c0.281,0,0.5,0.219,0.5,0.5v1c0,0.281-0.219,0.5-0.5,0.5h-1.5v1.5
		c0,0.281-0.219,0.5-0.5,0.5h-1c-0.281,0-0.5-0.219-0.5-0.5V21h-1.5c-0.281,0-0.5-0.219-0.5-0.5v-1c0-0.281,0.219-0.5,0.5-0.5h1.5
		v-2.063c-4.906-0.547-8.641-5.047-7.906-10.219c0.531-3.891,3.625-7.016,7.5-7.609c2.391-0.359,4.625,0.219,6.406,1.406
		c1.438-0.953,3.156-1.516,5-1.516c2.125,0,4.078,0.75,5.609,1.969L-214.258-3h-2.094c-0.281,0-0.5-0.219-0.5-0.5v-1
		C-216.852-4.781-216.633-5-216.352-5z M-233.851,15c1.234,0,2.406-0.328,3.406-0.891c-1.484-1.609-2.406-3.75-2.406-6.109
		s0.922-4.5,2.406-6.109c-1-0.563-2.172-0.891-3.406-0.891c-3.859,0-7,3.141-7,7S-237.71,15-233.851,15z M-226.852,8
		c0-1.906-0.765-3.625-2-4.891c-1.234,1.266-2,2.984-2,4.891s0.766,3.625,2,4.891C-227.617,11.625-226.852,9.906-226.852,8z
		 M-216.852,8c0-3.859-3.141-7-7-7c-1.234,0-2.406,0.328-3.406,0.891c1.484,1.609,2.406,3.75,2.406,6.109s-0.922,4.5-2.406,6.109
		c1,0.563,2.171,0.891,3.406,0.891C-219.992,15-216.852,11.859-216.852,8z"/>
</g>
<g>
	<path fill="#6E2B85" d="M-118.301,21.406l-1.672,1.688c-0.375,0.359-0.891,0.578-1.422,0.578s-1.047-0.219-1.406-0.578
		l-5.672-5.688c-0.375-0.359-0.594-0.875-0.594-1.406c0-0.594,0.25-1.078,0.672-1.5l-4-4l-1.969,1.969
		c-0.141,0.141-0.328,0.219-0.531,0.219s-0.391-0.078-0.531-0.219c0.469,0.469,0.906,0.813,0.906,1.531
		c0,0.406-0.156,0.766-0.438,1.063c-0.531,0.563-1.094,1.313-1.938,1.313c-0.391,0-0.781-0.156-1.063-0.438l-6.375-6.375
		c-0.281-0.281-0.438-0.672-0.438-1.063c0-0.844,0.75-1.406,1.313-1.938c0.297-0.281,0.656-0.438,1.063-0.438
		c0.719,0,1.063,0.438,1.531,0.906c-0.141-0.141-0.219-0.328-0.219-0.531s0.078-0.391,0.219-0.531l5.438-5.438
		c0.141-0.141,0.328-0.219,0.531-0.219s0.391,0.078,0.531,0.219c-0.469-0.469-0.906-0.813-0.906-1.531
		c0-0.406,0.156-0.766,0.438-1.063c0.531-0.563,1.094-1.313,1.938-1.313c0.391,0,0.781,0.156,1.063,0.438l6.375,6.375
		c0.281,0.281,0.438,0.672,0.438,1.063c0,0.844-0.75,1.406-1.313,1.938c-0.297,0.281-0.656,0.438-1.063,0.438
		c-0.719,0-1.063-0.438-1.531-0.906c0.141,0.141,0.219,0.328,0.219,0.531s-0.078,0.391-0.219,0.531L-130.895,9l4,4
		c0.422-0.422,0.906-0.672,1.5-0.672c0.531,0,1.047,0.219,1.422,0.578l5.672,5.672c0.359,0.375,0.578,0.891,0.578,1.422
		S-117.942,21.047-118.301,21.406z"/>
</g>
<g>
	<path fill="#B8285A" d="M-22.518,10.469c0,0.203-0.156,0.438-0.359,0.469l-2.422,0.375c-0.125,0.406-0.297,0.797-0.5,1.188
		c0.438,0.625,0.906,1.203,1.406,1.797c0.063,0.094,0.109,0.188,0.109,0.313c0,0.109-0.031,0.219-0.109,0.297
		c-0.313,0.422-2.063,2.328-2.516,2.328c-0.125,0-0.234-0.047-0.328-0.109l-1.797-1.406c-0.391,0.203-0.781,0.359-1.203,0.484
		c-0.078,0.797-0.156,1.656-0.359,2.422C-30.659,18.844-30.846,19-31.065,19h-2.906c-0.219,0-0.438-0.172-0.469-0.391l-0.359-2.391
		c-0.406-0.125-0.797-0.297-1.172-0.484l-1.844,1.391c-0.078,0.078-0.203,0.109-0.313,0.109c-0.125,0-0.234-0.047-0.328-0.125
		c-0.406-0.375-2.25-2.047-2.25-2.5c0-0.109,0.047-0.203,0.109-0.297c0.453-0.594,0.922-1.172,1.375-1.781
		c-0.219-0.422-0.406-0.844-0.547-1.281l-2.375-0.375c-0.219-0.031-0.375-0.234-0.375-0.453V7.531c0-0.203,0.156-0.438,0.359-0.469
		l2.422-0.375c0.125-0.406,0.297-0.797,0.5-1.188c-0.438-0.625-0.906-1.203-1.406-1.797c-0.063-0.094-0.109-0.203-0.109-0.313
		s0.031-0.219,0.109-0.313c0.313-0.422,2.063-2.313,2.516-2.313c0.125,0,0.234,0.047,0.328,0.109l1.797,1.406
		c0.391-0.203,0.781-0.359,1.203-0.5C-34.721,1-34.643,0.141-34.44-0.625C-34.377-0.844-34.19-1-33.971-1h2.906
		c0.219,0,0.438,0.172,0.469,0.391l0.359,2.391c0.406,0.125,0.797,0.297,1.172,0.484l1.844-1.391
		c0.094-0.078,0.203-0.109,0.313-0.109c0.125,0,0.234,0.047,0.328,0.125c0.406,0.375,2.25,2.063,2.25,2.5
		c0,0.109-0.047,0.203-0.109,0.297c-0.453,0.609-0.922,1.172-1.359,1.781c0.203,0.422,0.391,0.844,0.531,1.281l2.375,0.359
		c0.219,0.047,0.375,0.25,0.375,0.469V10.469z M-32.518,5c-2.203,0-4,1.797-4,4s1.797,4,4,4s4-1.797,4-4S-30.315,5-32.518,5z
		 M-12.518,2.094c0,0.234-2.016,0.453-2.328,0.484c-0.125,0.297-0.281,0.563-0.469,0.813c0.141,0.313,0.797,1.875,0.797,2.156
		c0,0.047-0.016,0.078-0.063,0.109c-0.188,0.109-1.859,1.109-1.938,1.109c-0.203,0-1.375-1.563-1.531-1.797
		C-18.206,4.984-18.362,5-18.518,5s-0.313-0.016-0.469-0.031c-0.156,0.234-1.328,1.797-1.531,1.797c-0.078,0-1.75-1-1.938-1.109
		c-0.047-0.031-0.063-0.078-0.063-0.109c0-0.266,0.656-1.844,0.797-2.156c-0.188-0.25-0.344-0.516-0.469-0.813
		c-0.313-0.031-2.328-0.25-2.328-0.484v-2.188c0-0.234,2.016-0.453,2.328-0.484c0.125-0.281,0.281-0.563,0.469-0.813
		c-0.141-0.313-0.797-1.891-0.797-2.156c0-0.031,0.016-0.078,0.063-0.109c0.188-0.094,1.859-1.094,1.938-1.094
		c0.203,0,1.375,1.547,1.531,1.781C-18.831-2.984-18.674-3-18.518-3s0.313,0.016,0.469,0.031c0.438-0.609,0.906-1.219,1.438-1.75
		l0.094-0.031c0.078,0,1.75,0.984,1.938,1.094c0.047,0.031,0.063,0.078,0.063,0.109c0,0.281-0.656,1.844-0.797,2.156
		c0.188,0.25,0.344,0.531,0.469,0.813c0.313,0.031,2.328,0.25,2.328,0.484V2.094z M-12.518,18.094c0,0.234-2.016,0.453-2.328,0.484
		c-0.125,0.297-0.281,0.563-0.469,0.813c0.141,0.313,0.797,1.875,0.797,2.156c0,0.047-0.016,0.078-0.063,0.109
		c-0.188,0.109-1.859,1.109-1.938,1.109c-0.203,0-1.375-1.563-1.531-1.797C-18.206,20.984-18.362,21-18.518,21
		s-0.313-0.016-0.469-0.031c-0.156,0.234-1.328,1.797-1.531,1.797c-0.078,0-1.75-1-1.938-1.109
		c-0.047-0.031-0.063-0.078-0.063-0.109c0-0.266,0.656-1.844,0.797-2.156c-0.188-0.25-0.344-0.516-0.469-0.813
		c-0.313-0.031-2.328-0.25-2.328-0.484v-2.188c0-0.234,2.016-0.453,2.328-0.484c0.125-0.281,0.281-0.563,0.469-0.813
		c-0.141-0.313-0.797-1.891-0.797-2.156c0-0.031,0.016-0.078,0.063-0.109c0.188-0.094,1.859-1.094,1.938-1.094
		c0.203,0,1.375,1.547,1.531,1.781C-18.831,13.016-18.674,13-18.518,13s0.313,0.016,0.469,0.031c0.438-0.609,0.906-1.219,1.438-1.75
		l0.094-0.031c0.078,0,1.75,0.984,1.938,1.094c0.047,0.031,0.063,0.078,0.063,0.109c0,0.281-0.656,1.844-0.797,2.156
		c0.188,0.25,0.344,0.531,0.469,0.813c0.313,0.031,2.328,0.25,2.328,0.484V18.094z M-18.518-1c-1.094,0-2,0.906-2,2
		c0,1.109,0.906,2,2,2c1.109,0,2-0.906,2-2S-17.424-1-18.518-1z M-18.518,15c-1.094,0-2,0.906-2,2c0,1.109,0.906,2,2,2
		c1.109,0,2-0.906,2-2S-17.424,15-18.518,15z"/>
</g>
<g>
	<path fill="#D74527" d="M35.656,6.484l-17.5,5.5C18.093,12,18.046,12,18,12c-0.046,0-0.093,0-0.156-0.016L7.656,8.766
		c-0.891,0.703-1.516,2.422-1.641,4.531C6.609,13.641,7,14.266,7,15c0,0.703-0.359,1.313-0.906,1.672L7,23.438
		c0.016,0.141-0.031,0.281-0.125,0.391S6.641,24,6.5,24h-3c-0.141,0-0.281-0.063-0.375-0.172S2.984,23.578,3,23.438l0.906-6.766
		C3.359,16.313,3,15.703,3,15c0-0.75,0.422-1.391,1.016-1.734c0.094-1.828,0.563-3.797,1.531-5.156L0.344,6.484
		C0.141,6.406,0,6.219,0,6s0.141-0.406,0.344-0.484l17.5-5.5C17.906,0,17.953,0,18,0c0.047,0,0.094,0,0.156,0.016l17.5,5.5
		C35.859,5.594,36,5.781,36,6S35.859,6.406,35.656,6.484z M28,16c0.125,2.203-4.484,4-10,4c-5.515,0-10.125-1.797-10-4l0.281-4.938
		l8.969,2.828C17.5,13.969,17.75,14,18,14c0.25,0,0.5-0.031,0.75-0.109l8.969-2.828L28,16z"/>
</g>
</svg>
